<svg xmlns="http://www.w3.org/2000/svg" width="146.556" height="124.817" viewBox="0 0 146.556 124.817"><g transform="translate(-870.466 -1346.642)"><path d="M960.547,1440.638c-.262-.035-.521-.062-.778-.079,0-.124.012-.239.016-.361l-34.792-20.087c-11.917-6.88-21.576-23.542-21.576-37.215q0-.638.028-1.25a18.326,18.326,0,0,0-7.486,10.01,32.668,32.668,0,0,0-3.416-2.313c-11.917-6.88-21.577-1.372-21.577,12.3s9.66,30.336,21.577,37.216l74.078,42.769c9.335,5.389,16.9,1.074,16.9-9.636,0-8.245-4.486-17.873-10.808-24.329Z" transform="translate(0 -13.053)" fill="#42cede" stroke="#273855" stroke-linecap="round" stroke-linejoin="round" stroke-width="1"/><g transform="translate(892.788 1366.606)"><path d="M928.527,1387.824v3.032l20.347-11.747a1.078,1.078,0,0,1,1.618.934v30.211l-38.82,22.564a2.849,2.849,0,0,1-2.932-.042l-.829-.514a2.6,2.6,0,0,1-1.228-2.207v-29.792a2.936,2.936,0,0,1,1.468-2.543l18.76-10.831A1.078,1.078,0,0,1,928.527,1387.824Z" transform="translate(-906.359 -1378.641)" fill="#3EB881"/><path d="M910.041,1433.33a3.165,3.165,0,0,1-1.67-.476l-.828-.513a2.9,2.9,0,0,1-1.381-2.481v-29.793a3.269,3.269,0,0,1,1.629-2.822l18.76-10.831a1.4,1.4,0,0,1,2.1,1.214v2.473l19.862-11.468a1.4,1.4,0,0,1,2.1,1.214v30.211a.323.323,0,0,1-.161.279l-38.82,22.564A3.17,3.17,0,0,1,910.041,1433.33Zm17.208-46.461a.743.743,0,0,0-.377.1l-18.76,10.832a2.621,2.621,0,0,0-1.306,2.262v29.793a2.262,2.262,0,0,0,1.076,1.933l.828.513a2.567,2.567,0,0,0,2.6.036l38.659-22.47v-30.026a.76.76,0,0,0-1.133-.655l-20.347,11.748a.323.323,0,0,1-.484-.28v-3.032A.759.759,0,0,0,927.25,1386.869Z" transform="translate(-906.161 -1378.443)" fill="#273855"/><g transform="translate(1.999 1.93)"><path d="M953.716,1408.1l-43.81,25.294v-26.027l43.81-25.294Z" transform="translate(-909.583 -1381.754)" fill="#fff"/><path d="M909.708,1433.522a.322.322,0,0,1-.323-.322v-26.027a.323.323,0,0,1,.162-.28l43.809-25.293a.323.323,0,0,1,.484.28v26.027a.324.324,0,0,1-.162.28l-43.809,25.293A.326.326,0,0,1,909.708,1433.522Zm.323-26.163v25.281l43.164-24.921v-25.282Z" transform="translate(-909.385 -1381.556)" fill="#273855"/></g><g transform="translate(1.908 6.068)"><path d="M953.319,1413.1l-40.551,23.413a2.817,2.817,0,0,1-2.744.04l-.265-.143.275.105a1.012,1.012,0,0,0,1.373-.944V1414.95a2.936,2.936,0,0,1,1.468-2.543L953.6,1388.9a1.078,1.078,0,0,1,1.617.934v19.981A3.8,3.8,0,0,1,953.319,1413.1Z" transform="translate(-909.437 -1388.427)" fill="#c6f0f5"/><path d="M911.163,1437.012a3.151,3.151,0,0,1-1.489-.376l-.265-.143a.323.323,0,0,1,.269-.585l.276.106a.7.7,0,0,0,.934-.644v-20.619a3.269,3.269,0,0,1,1.63-2.822l40.725-23.512a1.4,1.4,0,0,1,2.1,1.213v19.982a4.131,4.131,0,0,1-2.059,3.567l-40.551,23.413A3.145,3.145,0,0,1,911.163,1437.012Zm-.075-.646a2.633,2.633,0,0,0,1.321-.333l40.551-23.413a3.481,3.481,0,0,0,1.736-3.007v-19.982a.759.759,0,0,0-1.133-.653l-40.724,23.512a2.618,2.618,0,0,0-1.307,2.262v20.619A1.337,1.337,0,0,1,911.088,1436.366Z" transform="translate(-909.239 -1388.229)" fill="#273855"/></g></g><g transform="translate(900.846 1373.14)"><g transform="translate(0 0)"><path d="M941.524,1398.362v3.031l20.346-11.747a1.078,1.078,0,0,1,1.617.934v30.212l-38.82,22.564a2.849,2.849,0,0,1-2.932-.042l-.828-.513a2.6,2.6,0,0,1-1.229-2.207V1410.8a2.937,2.937,0,0,1,1.468-2.542l18.76-10.831A1.078,1.078,0,0,1,941.524,1398.362Z" transform="translate(-919.355 -1389.178)" fill="#3EB881"/><path d="M923.037,1443.868a3.163,3.163,0,0,1-1.67-.477l-.828-.513a2.9,2.9,0,0,1-1.382-2.481V1410.6a3.268,3.268,0,0,1,1.629-2.822l18.76-10.831a1.4,1.4,0,0,1,2.1,1.213v2.473l19.862-11.468a1.4,1.4,0,0,1,2.1,1.215v30.211a.323.323,0,0,1-.161.279l-38.82,22.564A3.173,3.173,0,0,1,923.037,1443.868Zm17.208-46.461a.739.739,0,0,0-.376.1l-18.76,10.831a2.618,2.618,0,0,0-1.307,2.262V1440.4a2.262,2.262,0,0,0,1.076,1.933l.829.513a2.567,2.567,0,0,0,2.6.037l38.66-22.471v-30.025a.76.76,0,0,0-1.133-.655l-20.346,11.747a.322.322,0,0,1-.484-.28v-3.033A.76.76,0,0,0,940.246,1397.406Z" transform="translate(-919.157 -1388.98)" fill="#273855"/></g><g transform="translate(2 1.931)"><path d="M966.712,1418.641l-43.81,25.294v-26.027l43.81-25.294Z" transform="translate(-922.58 -1392.292)" fill="#fff"/><path d="M922.7,1444.06a.322.322,0,0,1-.322-.323V1417.71a.325.325,0,0,1,.161-.28l43.809-25.293a.323.323,0,0,1,.484.28v26.027a.323.323,0,0,1-.161.28l-43.809,25.294A.326.326,0,0,1,922.7,1444.06Zm.323-26.164v25.282l43.164-24.921v-25.281Z" transform="translate(-922.382 -1392.094)" fill="#273855"/></g><g transform="translate(1.909 6.068)"><path d="M966.316,1423.635l-40.551,23.412a2.816,2.816,0,0,1-2.744.04l-.265-.143.276.105a1.011,1.011,0,0,0,1.372-.944v-20.619a2.936,2.936,0,0,1,1.468-2.542l40.724-23.512a1.078,1.078,0,0,1,1.618.934v19.981A3.8,3.8,0,0,1,966.316,1423.635Z" transform="translate(-922.433 -1398.964)" fill="#c6f0f5"/><path d="M924.159,1447.55a3.16,3.16,0,0,1-1.489-.375l-.265-.143a.322.322,0,0,1,.269-.585l.276.106a.7.7,0,0,0,.934-.644V1425.29a3.269,3.269,0,0,1,1.629-2.822l40.724-23.512a1.4,1.4,0,0,1,2.1,1.214v19.981a4.131,4.131,0,0,1-2.059,3.567l-40.551,23.413A3.146,3.146,0,0,1,924.159,1447.55Zm-.074-.646a2.615,2.615,0,0,0,1.321-.333l40.551-23.413a3.481,3.481,0,0,0,1.737-3.007v-19.981a.76.76,0,0,0-1.133-.654l-40.725,23.512a2.619,2.619,0,0,0-1.307,2.262v20.619A1.338,1.338,0,0,1,924.085,1446.9Z" transform="translate(-922.236 -1398.767)" fill="#273855"/></g></g><g transform="translate(910.306 1379.208)"><g transform="translate(0 0)"><path d="M956.781,1408.148v3.031l20.346-11.747a1.078,1.078,0,0,1,1.618.934v30.212l-38.82,22.564a2.848,2.848,0,0,1-2.932-.042l-.829-.513a2.6,2.6,0,0,1-1.228-2.207v-29.793a2.936,2.936,0,0,1,1.468-2.542l18.76-10.831A1.078,1.078,0,0,1,956.781,1408.148Z" transform="translate(-934.612 -1398.964)" fill="#3EB881"/><path d="M938.294,1453.654a3.16,3.16,0,0,1-1.67-.477l-.829-.513a2.9,2.9,0,0,1-1.381-2.481V1420.39a3.269,3.269,0,0,1,1.629-2.822l18.76-10.831a1.4,1.4,0,0,1,2.1,1.213v2.474l19.862-11.469a1.4,1.4,0,0,1,2.1,1.215v30.211a.323.323,0,0,1-.161.279l-38.82,22.564A3.169,3.169,0,0,1,938.294,1453.654Zm17.208-46.461a.74.74,0,0,0-.376.1l-18.76,10.832a2.619,2.619,0,0,0-1.306,2.262v29.793a2.262,2.262,0,0,0,1.076,1.933l.828.514a2.567,2.567,0,0,0,2.6.036l38.659-22.47V1400.17a.759.759,0,0,0-1.133-.655l-20.346,11.747a.323.323,0,0,1-.484-.28v-3.033A.759.759,0,0,0,955.5,1407.193Z" transform="translate(-934.414 -1398.767)" fill="#273855"/></g><g transform="translate(1.999 1.93)"><path d="M981.969,1428.427l-43.81,25.294v-26.027l43.81-25.293Z" transform="translate(-937.836 -1402.078)" fill="#fff"/><path d="M937.961,1453.846a.322.322,0,0,1-.323-.323V1427.5a.324.324,0,0,1,.162-.28l43.809-25.293a.323.323,0,0,1,.484.28v26.027a.322.322,0,0,1-.162.28L938.122,1453.8A.326.326,0,0,1,937.961,1453.846Zm.322-26.163v25.281l43.165-24.921v-25.281Z" transform="translate(-937.638 -1401.88)" fill="#273855"/></g><g transform="translate(1.909 6.068)"><path d="M981.572,1433.421l-40.551,23.412a2.815,2.815,0,0,1-2.744.04l-.265-.143.276.105a1.011,1.011,0,0,0,1.372-.944v-20.619a2.936,2.936,0,0,1,1.468-2.542l40.725-23.512a1.078,1.078,0,0,1,1.617.934v19.981A3.8,3.8,0,0,1,981.572,1433.421Z" transform="translate(-937.69 -1408.75)" fill="#c6f0f5"/><path d="M939.416,1457.336a3.157,3.157,0,0,1-1.489-.376l-.265-.143a.322.322,0,0,1,.269-.585l.275.106a.7.7,0,0,0,.934-.644v-20.619a3.267,3.267,0,0,1,1.629-2.822l40.725-23.513a1.4,1.4,0,0,1,2.1,1.214v19.982a4.129,4.129,0,0,1-2.059,3.567l-40.551,23.413A3.145,3.145,0,0,1,939.416,1457.336Zm-.075-.647a2.618,2.618,0,0,0,1.321-.334l40.551-23.413a3.48,3.48,0,0,0,1.736-3.007v-19.982a.76.76,0,0,0-1.133-.654l-40.724,23.512a2.62,2.62,0,0,0-1.307,2.262v20.619A1.337,1.337,0,0,1,939.341,1456.69Z" transform="translate(-937.492 -1408.553)" fill="#273855"/></g></g><g transform="translate(918.421 1418.813)"><path d="M979.716,1475.622c-.22-.795.715-1.832.066-2.564a1.46,1.46,0,0,0-.366-.285c-.836-.482-2.4-.682-3.271-1.184s-1.22-1.409-2.055-1.891a2.264,2.264,0,0,0-.494-.211c-1.265-.373-3.052.171-4.427.046s-2.805-.962-4.19-.836-2.266,1.169-3.529,1.542c-1.216.36-3.208.161-4.226.752s-.667,1.744-1.285,2.45c-.638.732-2.437,1.254-2.649,2.048s1.233,1.622,1.455,2.425a1.079,1.079,0,0,1,.03.358l-7.269,2.937,1.505.414,5.494-2.22h0l-5.494,2.22.656.18,4.781-1.932h0l-4.781,1.932,2.4.659.048,1.169.019.436.041,1.007,6.7-2.705a15.067,15.067,0,0,0,1.269,1.309l-4.238,3.543,1.739.021.752.01,2.02.024,1.145,1.386h0l.313.379,5.441-4.55h0l-5.441,4.55.719.871,6.094-5.1a3.646,3.646,0,0,0,.8.022c1.371-.126,2.266-1.169,3.528-1.542,1.218-.36,3.209-.161,4.226-.752s.667-1.744,1.285-2.45c.639-.733,2.437-1.254,2.651-2.049S979.938,1476.424,979.716,1475.622Z" transform="translate(-947.504 -1464.938)" fill="#273855"/><g transform="translate(5.765 1.84)" style="isolation:isolate"><path d="M983.247,1472.548c-.22-.8.716-1.832.066-2.565a1.46,1.46,0,0,0-.366-.285c-.836-.482-2.4-.682-3.271-1.184s-1.22-1.409-2.055-1.891a2.241,2.241,0,0,0-.494-.211c-1.265-.373-3.052.171-4.427.047s-2.8-.962-4.19-.836-2.266,1.169-3.529,1.542c-1.216.36-3.208.161-4.226.753s-.667,1.743-1.285,2.45c-.638.733-2.437,1.254-2.649,2.049s1.233,1.622,1.455,2.425-.712,1.832-.064,2.563a1.462,1.462,0,0,0,.366.286c.835.482,2.4.682,3.271,1.184s1.219,1.409,2.055,1.891a2.289,2.289,0,0,0,.494.211c1.265.373,3.053-.171,4.425-.046,1.388.125,2.807.961,4.191.835s2.266-1.169,3.528-1.542c1.218-.36,3.209-.161,4.226-.752s.667-1.744,1.285-2.45c.639-.734,2.437-1.254,2.651-2.05S983.47,1473.351,983.247,1472.548Z" transform="translate(-956.8 -1465.61)" fill="#c6f0f5" stroke="#273855" stroke-linecap="round" stroke-linejoin="round" stroke-width="1"/></g><g transform="translate(0 0)"><g transform="translate(0 7.613)"><g style="isolation:isolate"><g transform="translate(15.639 2.88)"><path d="M973.085,1479.861l0,.807-.358-.3,0-.807Z" transform="translate(-972.725 -1479.564)" fill="#823d00"/></g><g transform="translate(1.505 0.686)"><path d="M961.419,1476.027l0,.807-11.486,4.641,0-.807Z" transform="translate(-949.93 -1476.027)" fill="#c55c00"/></g><g transform="translate(2.162 0.985)"><path d="M962.182,1476.509l0,.807-11.191,4.522,0-.807Z" transform="translate(-950.989 -1476.509)" fill="#c5c5c5"/></g><g transform="translate(4.606 2.88)"><path d="M965.966,1479.564l0,.807-11.032,4.456,0-.807Z" transform="translate(-954.931 -1479.564)" fill="#c55c00"/></g><g transform="translate(4.558 6.166)"><path d="M954.9,1486.035l0,.807-.048-1.17,0-.807Z" transform="translate(-954.854 -1484.865)" fill="#803c00"/></g><g transform="translate(4.625 3.177)"><path d="M966.336,1480.043l0,.807-11.372,4.595,0-.807Z" transform="translate(-954.962 -1480.043)" fill="#c5c5c5"/></g><g transform="translate(1.508 0.686)"><path d="M961.42,1476.027l-11.486,4.641.656.18,11.191-4.522Z" transform="translate(-949.934 -1476.027)" fill="#fff"/><path d="M965.967,1479.564l-11.032,4.456.019.436,11.372-4.595Z" transform="translate(-951.834 -1477.371)" fill="#fff"/></g><g transform="translate(4.606 7.336)"><path d="M954.952,1487.187l0,.807-.019-.436,0-.807Z" transform="translate(-954.931 -1486.751)" fill="gray"/></g><g transform="translate(0 3.865)"><path d="M949.01,1483.259l-1.505-.414,0,1.42,4.558,1.252,0-1.42-2.4-.659Z" transform="translate(-947.502 -1481.796)" fill="#c6f0f5" stroke="#273855" stroke-linecap="round" stroke-linejoin="round" stroke-width="1"/><path d="M955.03,1486.067l0,1.42,12.163-4.914,0-1.42Z" transform="translate(-950.362 -1481.153)" fill="#c6f0f5" stroke="#273855" stroke-linecap="round" stroke-linejoin="round" stroke-width="1"/></g><path d="M960.5,1475.606l-11.486,4.641-1.505-.414,12.163-4.914Zm.361.3-11.191,4.522,2.4.659.048,1.17,11.032-4.457.358.3-11.372,4.6.041,1.008,12.163-4.914Z" transform="translate(-947.504 -1474.92)" fill="#fff" stroke="#273855" stroke-linecap="round" stroke-linejoin="round" stroke-width="1"/><g transform="translate(4.625 7.772)"><path d="M955,1488.461l0,.807-.041-1.007,0-.807Z" transform="translate(-954.962 -1487.454)" fill="#803c00"/></g></g></g><g transform="translate(8.394 11.477)"><g style="isolation:isolate"><g transform="translate(9.635 0.48)"><path d="M977.095,1482.133l0,.807-.514-.207,0-.807Z" transform="translate(-976.578 -1481.927)" fill="#924400"/></g><g transform="translate(1.739 0.48)"><path d="M971.742,1481.927l0,.807-7.9,6.6,0-.807Z" transform="translate(-963.844 -1481.927)" fill="#c05a00"/></g><g transform="translate(1.741 0.48)"><path d="M972.258,1482.133l-7.657,6.405-.752-.01,7.9-6.6Z" transform="translate(-963.848 -1481.927)" fill="#fff"/></g><g transform="translate(2.491 0.686)"><path d="M972.717,1482.26l0,.807-7.657,6.405,0-.807Z" transform="translate(-965.057 -1482.26)" fill="silver"/></g><g transform="translate(5.657 2.005)"><path d="M977.935,1484.386l0,.807-7.77,6.5,0-.807Z" transform="translate(-970.163 -1484.386)" fill="#c05a00"/></g><g transform="translate(5.659 2.005)"><path d="M978.453,1484.594l-7.975,6.668-.312-.38,7.77-6.5Z" transform="translate(-970.166 -1484.386)" fill="#fff"/></g><g transform="translate(5.969 2.212)"><path d="M978.643,1484.721l0,.807-7.975,6.669,0-.807Z" transform="translate(-970.666 -1484.721)" fill="silver"/></g><path d="M969.487,1481.153l4.983,2-7.77,6.5-1.145-1.386-2.02-.024,7.657-6.405-.514-.207-7.9,6.6-1.739-.02Zm5.5,2.212-7.974,6.668.719.871,8.444-7.061Z" transform="translate(-961.041 -1481.153)" fill="#fff" stroke="#273855" stroke-linecap="round" stroke-linejoin="round" stroke-width="1"/><path d="M967.73,1492.553l-.719-.871h0l-.312-.379-1.146-1.386-2.02-.024h0l-.752-.01-1.739-.02,0,1.421,4.511.054,2.177,2.636,8.444-7.061,0-1.42Z" transform="translate(-961.04 -1482.802)" fill="#c6f0f5" stroke="#273855" stroke-linecap="round" stroke-linejoin="round" stroke-width="1"/></g></g><g transform="translate(5.765)"><g style="isolation:isolate"><path d="M983.247,1469.58c-.22-.8.716-1.832.066-2.564a1.46,1.46,0,0,0-.366-.285c-.836-.482-2.4-.682-3.271-1.184s-1.22-1.409-2.055-1.891a2.241,2.241,0,0,0-.494-.211c-1.265-.373-3.052.171-4.427.047s-2.8-.962-4.19-.836-2.266,1.169-3.529,1.542c-1.216.359-3.208.161-4.226.753s-.667,1.744-1.285,2.45c-.638.733-2.437,1.254-2.649,2.049s1.233,1.622,1.455,2.425-.712,1.832-.064,2.563a1.462,1.462,0,0,0,.366.286c.835.482,2.4.682,3.271,1.184s1.219,1.409,2.055,1.891a2.3,2.3,0,0,0,.494.212c1.265.373,3.053-.171,4.425-.046,1.388.125,2.807.961,4.191.835s2.266-1.169,3.528-1.541c1.218-.36,3.209-.161,4.226-.752s.667-1.744,1.285-2.45c.639-.734,2.437-1.254,2.651-2.05S983.47,1470.383,983.247,1469.58Z" transform="translate(-956.8 -1462.642)" fill="#fff" stroke="#273855" stroke-linecap="round" stroke-linejoin="round" stroke-width="1"/></g><g transform="translate(2.9 1.686)"><path d="M964.739,1476.3c4.329,2.5,11.35,2.5,15.649,0h0c4.3-2.5,4.278-6.566-.051-9.065s-11.35-2.5-15.651,0h0C960.387,1469.735,960.41,1473.8,964.739,1476.3Zm.466-8.766a16.132,16.132,0,0,1,14.619,0c4.044,2.334,4.064,6.133.047,8.467a16.126,16.126,0,0,1-14.617,0C961.209,1473.668,961.187,1469.87,965.2,1467.536Z" transform="translate(-961.477 -1465.362)" fill="#42cede"/><path d="M973.8,1469.523l-1.006-.581-4.319,2.51,1.006.581Z" transform="translate(-964.136 -1466.722)" fill="#42cede"/><path d="M975.277,1474.151c-.264.154-.7.128-1.3-.215a2.046,2.046,0,0,1-.983-1.09l-1.1.241a2.621,2.621,0,0,0,1.271,1.312,3.282,3.282,0,0,0,3.182.287c1.586-.922-1.49-2.061-.693-2.525a1.341,1.341,0,0,1,1.318.191,2.107,2.107,0,0,1,.865.891l1.071-.26a2.586,2.586,0,0,0-1.129-1.094,3.251,3.251,0,0,0-3.175-.275C973,1472.545,976.086,1473.681,975.277,1474.151Z" transform="translate(-965.436 -1467.625)" fill="#42cede"/><path d="M980.773,1478.637a4.9,4.9,0,0,0,4.612.074c1.289-.749,1.218-1.882-.146-2.67a4.9,4.9,0,0,0-4.611-.076C979.344,1476.712,979.4,1477.845,980.773,1478.637Zm.874-2.084a2.881,2.881,0,0,1,2.742-.017c.775.448.8,1.111-.021,1.589a2.891,2.891,0,0,1-2.744.019C980.846,1477.694,980.827,1477.03,981.647,1476.553Z" transform="translate(-968.402 -1469.186)" fill="#42cede"/></g></g></g></g><g transform="translate(940.799 1412.466)"><g transform="translate(0 9.628)"><path d="M983.959,1490.535,1020.9,1468.3l32.242,13.956-40.85,24.721-.668-.351Z" transform="translate(-983.733 -1468.072)" fill="#3EB881"/><path d="M1012.053,1507.037l-.677-.356-27.67-16.089a.226.226,0,0,1,0-.389l36.946-22.237a.224.224,0,0,1,.206-.014l32.242,13.957a.226.226,0,0,1,.027.4l-40.85,24.721a.224.224,0,0,1-.117.033A.23.23,0,0,1,1012.053,1507.037Zm8.729-38.624-36.52,21.98,27.331,15.892.556.293,40.366-24.429Z" transform="translate(-983.594 -1467.934)" fill="#273855"/></g><g transform="translate(0.618 7.418)"><path d="M1011.234,1502.946l-26.28-15.242,37.683-22.8a1.2,1.2,0,0,1,1.22-.014l25.407,14.734Z" transform="translate(-984.728 -1464.506)" fill="#fff"/><path d="M1010.982,1503.005l-26.28-15.242a.226.226,0,0,1,0-.388l37.683-22.8a1.45,1.45,0,0,1,1.45-.017l25.406,14.734a.225.225,0,0,1,.005.388L1011.213,1503a.223.223,0,0,1-.118.033A.226.226,0,0,1,1010.982,1503.005Zm12.625-38.059a.992.992,0,0,0-.991.012l-37.358,22.6,25.834,14.983,37.592-23.057Z" transform="translate(-984.59 -1464.37)" fill="#273855"/></g><g transform="translate(0.618 5.835)"><path d="M1011.234,1500.393l-26.28-15.242,37.683-22.8a1.2,1.2,0,0,1,1.22-.015l25.407,14.734Z" transform="translate(-984.728 -1461.953)" fill="#fff"/><path d="M1010.982,1500.451,984.7,1485.21a.226.226,0,0,1,0-.389l37.683-22.8a1.453,1.453,0,0,1,1.45-.017l25.406,14.734a.225.225,0,0,1,.005.388l-38.03,23.325a.223.223,0,0,1-.118.033A.22.22,0,0,1,1010.982,1500.451Zm12.625-38.058a1,1,0,0,0-.991.012l-37.358,22.6,25.834,14.984,37.592-23.057Z" transform="translate(-984.59 -1461.817)" fill="#273855"/></g><g transform="translate(0.618 4.168)"><path d="M1011.234,1497.7l-26.28-15.242,37.683-22.8a1.2,1.2,0,0,1,1.22-.015l25.407,14.734Z" transform="translate(-984.728 -1459.263)" fill="#fff"/><path d="M1010.982,1497.762,984.7,1482.52a.226.226,0,0,1,0-.389l37.683-22.8a1.45,1.45,0,0,1,1.45-.017l25.406,14.735a.225.225,0,0,1,.005.387l-38.03,23.324a.223.223,0,0,1-.118.034A.22.22,0,0,1,1010.982,1497.762Zm12.625-38.058a.994.994,0,0,0-.991.012l-37.358,22.6,25.834,14.984,37.592-23.057Z" transform="translate(-984.59 -1459.127)" fill="#273855"/></g><path d="M1011.955,1493.477l1.254,2.411-.541,5.239,40.7-24.589a1.31,1.31,0,0,0,.782-1.2v-3.807a3.344,3.344,0,0,0-1.682-2.9l-27.066-15.7a1.281,1.281,0,0,0-1.3.016l-40.144,24.291Zm32.513-15.423a3.951,3.951,0,0,1,1.793-3.093c.99-.572,1.793-.114,1.793,1.022a3.951,3.951,0,0,1-1.793,3.093C1045.271,1479.649,1044.468,1479.191,1044.468,1478.054Z" transform="translate(-983.733 -1452.541)" fill="#fff"/><path d="M1012.408,1501.182a.226.226,0,0,1-.1-.213l.534-5.172-1.192-2.294-27.94-16.2a.226.226,0,0,1,0-.388l40.145-24.291a1.532,1.532,0,0,1,1.53-.018l27.065,15.7a3.577,3.577,0,0,1,1.795,3.1v3.807a1.524,1.524,0,0,1-.892,1.395l-40.7,24.589a.226.226,0,0,1-.237,0Zm11.673-48.176L984.262,1477.1l27.667,16.047a.218.218,0,0,1,.087.091l1.254,2.411a.223.223,0,0,1,.025.128l-.495,4.788,40.335-24.366a1.091,1.091,0,0,0,.651-1v-3.807a3.125,3.125,0,0,0-1.569-2.706l-27.065-15.7a1.055,1.055,0,0,0-1.071.013Zm20.022,24.914a4.146,4.146,0,0,1,1.906-3.289,1.847,1.847,0,0,1,.917-.276c.738,0,1.214.587,1.214,1.495a4.142,4.142,0,0,1-1.906,3.288,1.84,1.84,0,0,1-.918.277C1044.58,1479.413,1044.1,1478.827,1044.1,1477.919Zm2.132-2.9a3.708,3.708,0,0,0-1.68,2.9c0,.653.285,1.042.763,1.042a1.427,1.427,0,0,0,.692-.216,3.706,3.706,0,0,0,1.68-2.9c0-.654-.285-1.044-.763-1.044A1.429,1.429,0,0,0,1046.235,1475.021Z" transform="translate(-983.594 -1452.405)" fill="#273855"/><path d="M1011.955,1493.476l-28-16.238,40.144-24.291a1.281,1.281,0,0,1,1.3-.016l27.066,15.7Z" transform="translate(-983.733 -1452.541)" fill="#c6f0f5"/><path d="M1011.7,1493.536l-28-16.238a.226.226,0,0,1,0-.388l40.145-24.291a1.532,1.532,0,0,1,1.53-.018l27.066,15.7a.226.226,0,0,1,.005.388l-40.514,24.848a.227.227,0,0,1-.118.033A.223.223,0,0,1,1011.7,1493.536Zm13.449-40.544a1.074,1.074,0,0,0-1.071.013L984.262,1477.1l27.55,15.98,40.077-24.58Z" transform="translate(-983.594 -1452.405)" fill="#273855"/><g transform="translate(0 24.473)"><path d="M1011.628,1515.721a.8.8,0,0,0,.4.11.814.814,0,0,0,.812-.813v-3.806a2.828,2.828,0,0,0-1.421-2.45l-27.461-15.971v-.552l27.72,16.071a3.344,3.344,0,0,1,1.682,2.9v3.807a1.33,1.33,0,0,1-1.991,1.154l-27.411-15.894v-.647Z" transform="translate(-983.733 -1492.013)" fill="#fff"/><path d="M1011.118,1516.229l-27.412-15.895a.226.226,0,0,1-.112-.195v-.647a.224.224,0,0,1,.113-.2.227.227,0,0,1,.226,0l27.669,16.088a.584.584,0,0,0,.874-.507v-3.807a2.6,2.6,0,0,0-1.308-2.256l-27.462-15.971a.225.225,0,0,1-.112-.195v-.552a.225.225,0,0,1,.113-.2.229.229,0,0,1,.226,0l27.719,16.07a3.579,3.579,0,0,1,1.795,3.1v3.808a1.553,1.553,0,0,1-2.329,1.349Zm-27.073-23.708,27.349,15.9a3.056,3.056,0,0,1,1.534,2.647v3.807a1.04,1.04,0,0,1-1.038,1.038,1.016,1.016,0,0,1-.514-.141l-27.331-15.891v.124l27.3,15.828a1.09,1.09,0,0,0,.547.148,1.109,1.109,0,0,0,1.106-1.106v-3.808a3.124,3.124,0,0,0-1.569-2.706l-27.381-15.875Z" transform="translate(-983.594 -1491.875)" fill="#273855"/></g><path d="M1080.793,1491.409c0,1.433,1.013,2.01,2.261,1.289a4.983,4.983,0,0,0,2.261-3.9c0-1.433-1.013-2.01-2.261-1.289A4.983,4.983,0,0,0,1080.793,1491.409Zm.468-.27a3.951,3.951,0,0,1,1.793-3.093c.99-.572,1.793-.114,1.793,1.022a3.951,3.951,0,0,1-1.793,3.093C1082.064,1492.733,1081.261,1492.275,1081.261,1491.138Z" transform="translate(-1020.526 -1465.625)" fill="#273855"/><g transform="translate(38.131 26.285)"><path d="M1045.456,1509.933l16.579-10.053v-4.717l-16.579,10.053Z" transform="translate(-1045.23 -1494.937)" fill="#fff"/><path d="M1045.207,1509.991a.225.225,0,0,1-.115-.2v-4.717a.226.226,0,0,1,.109-.193l16.579-10.054a.225.225,0,0,1,.342.193v4.717a.225.225,0,0,1-.109.193l-16.579,10.053a.222.222,0,0,1-.117.033A.226.226,0,0,1,1045.207,1509.991Zm16.464-14.566-16.128,9.78v4.189l16.128-9.78Z" transform="translate(-1045.092 -1494.798)" fill="#273855"/></g><g transform="translate(38.131 33.849)"><path d="M1049.563,1512.077l-4.107,2.49v-4.717l4.107-2.49Z" transform="translate(-1045.23 -1507.135)" fill="#3EB881"/><path d="M1045.207,1514.626a.225.225,0,0,1-.115-.2v-4.717a.226.226,0,0,1,.109-.193l4.107-2.49a.225.225,0,0,1,.342.193v4.717a.225.225,0,0,1-.109.193l-4.106,2.49a.222.222,0,0,1-.117.033A.226.226,0,0,1,1045.207,1514.626Zm3.991-7-3.655,2.216v4.189l3.655-2.217Z" transform="translate(-1045.092 -1506.996)" fill="#273855"/></g></g><g transform="translate(943.652 1407.22)"><g transform="translate(0 8.525)"><path d="M988.517,1477.7l32.711-19.688,28.546,12.356-36.167,21.887-.592-.311Z" transform="translate(-988.317 -1457.816)" fill="#3EB881"/><path d="M1013.39,1492.315l-.6-.316-24.5-14.245a.2.2,0,0,1,0-.344L1021,1457.722a.2.2,0,0,1,.183-.012l28.546,12.356a.2.2,0,0,1,.024.355l-36.167,21.887a.2.2,0,0,1-.1.029A.206.206,0,0,1,1013.39,1492.315Zm7.729-34.2-32.334,19.461,24.2,14.071.492.259,35.739-21.628Z" transform="translate(-988.194 -1457.694)" fill="#273855"/></g><g transform="translate(0.546 6.568)"><path d="M1012.665,1488.693,989.4,1475.2l33.364-20.188a1.064,1.064,0,0,1,1.08-.013l22.494,13.045Z" transform="translate(-989.198 -1454.659)" fill="#fff"/><path d="M1012.442,1488.745l-23.267-13.5a.2.2,0,0,1,0-.344l33.364-20.188a1.283,1.283,0,0,1,1.284-.015l22.494,13.045a.2.2,0,0,1,.1.171.2.2,0,0,1-.095.173l-33.671,20.651a.2.2,0,0,1-.1.029A.2.2,0,0,1,1012.442,1488.745Zm11.177-33.7a.88.88,0,0,0-.877.01l-33.075,20.014,22.872,13.266,33.284-20.414Z" transform="translate(-989.075 -1454.538)" fill="#273855"/></g><g transform="translate(0.546 5.166)"><path d="M1012.665,1486.432l-23.267-13.5,33.364-20.188a1.065,1.065,0,0,1,1.08-.013l22.494,13.045Z" transform="translate(-989.198 -1452.398)" fill="#fff"/><path d="M1012.442,1486.484l-23.267-13.5a.2.2,0,0,1,0-.344l33.364-20.188a1.284,1.284,0,0,1,1.284-.015l22.494,13.045a.2.2,0,0,1,.1.17.2.2,0,0,1-.095.173l-33.671,20.651a.2.2,0,0,1-.2,0Zm11.177-33.7a.881.881,0,0,0-.877.011l-33.075,20.013,22.872,13.266,33.284-20.414Z" transform="translate(-989.075 -1452.277)" fill="#273855"/></g><g transform="translate(0.546 3.69)"><path d="M1012.665,1484.051l-23.267-13.5,33.364-20.188a1.064,1.064,0,0,1,1.08-.013l22.494,13.045Z" transform="translate(-989.198 -1450.017)" fill="#fff"/><path d="M1012.442,1484.1l-23.267-13.5a.2.2,0,0,1-.1-.17.2.2,0,0,1,.1-.173l33.364-20.188a1.286,1.286,0,0,1,1.284-.015l22.494,13.046a.2.2,0,0,1,.1.171.2.2,0,0,1-.095.172l-33.671,20.651a.2.2,0,0,1-.1.03A.2.2,0,0,1,1012.442,1484.1Zm11.177-33.7a.878.878,0,0,0-.877.011l-33.075,20.014,22.872,13.266,33.284-20.413Z" transform="translate(-989.075 -1449.897)" fill="#273855"/></g><g transform="translate(0 0)"><path d="M1013.3,1480.309l1.11,2.135-.479,4.639,36.035-21.77a1.161,1.161,0,0,0,.693-1.064v-3.37a2.961,2.961,0,0,0-1.489-2.569l-23.963-13.9a1.134,1.134,0,0,0-1.151.014l-35.542,21.507Zm28.786-13.655a3.5,3.5,0,0,1,1.587-2.739c.877-.507,1.588-.1,1.588.905a3.5,3.5,0,0,1-1.588,2.739C1042.8,1468.066,1042.09,1467.66,1042.09,1466.655Z" transform="translate(-988.317 -1444.066)" fill="#fff"/><path d="M1013.7,1487.13a.2.2,0,0,1-.092-.188l.473-4.579-1.056-2.031-24.737-14.347a.2.2,0,0,1,0-.344l35.543-21.507a1.358,1.358,0,0,1,1.355-.016l23.963,13.9a3.166,3.166,0,0,1,1.589,2.742v3.371a1.35,1.35,0,0,1-.789,1.235l-36.035,21.77a.2.2,0,0,1-.21,0Zm10.335-42.654-35.255,21.332,24.5,14.207a.2.2,0,0,1,.077.081l1.11,2.135a.2.2,0,0,1,.022.113l-.438,4.239,35.712-21.573a.966.966,0,0,0,.576-.882v-3.371a2.767,2.767,0,0,0-1.389-2.4l-23.962-13.9a.94.94,0,0,0-.464-.123A.929.929,0,0,0,1024.04,1444.476Zm17.727,22.058a3.672,3.672,0,0,1,1.688-2.912,1.642,1.642,0,0,1,.812-.244c.653,0,1.075.52,1.075,1.323a3.668,3.668,0,0,1-1.688,2.912,1.632,1.632,0,0,1-.812.244C1042.189,1467.857,1041.767,1467.338,1041.767,1466.534Zm1.887-2.566a3.282,3.282,0,0,0-1.487,2.566c0,.578.252.923.675.923a1.263,1.263,0,0,0,.613-.192,3.281,3.281,0,0,0,1.488-2.565c0-.578-.252-.924-.676-.924A1.266,1.266,0,0,0,1043.654,1463.969Z" transform="translate(-988.194 -1443.945)" fill="#273855"/></g><g transform="translate(0 0)"><path d="M1013.3,1480.309l-24.787-14.377,35.542-21.507a1.134,1.134,0,0,1,1.151-.014l23.963,13.9Z" transform="translate(-988.317 -1444.065)" fill="#c6f0f5"/><path d="M1013.08,1480.361l-24.787-14.376a.2.2,0,0,1,0-.344l35.543-21.507a1.358,1.358,0,0,1,1.355-.016l23.963,13.9a.2.2,0,0,1,0,.344l-35.87,22a.205.205,0,0,1-.1.029A.2.2,0,0,1,1013.08,1480.361Zm11.908-35.9a.952.952,0,0,0-.948.012l-35.255,21.332,24.392,14.148,35.483-21.763Z" transform="translate(-988.194 -1443.945)" fill="#273855"/></g><g transform="translate(0 21.668)"><path d="M1013.015,1500a.709.709,0,0,0,.355.1.721.721,0,0,0,.719-.719v-3.371a2.5,2.5,0,0,0-1.258-2.169l-24.313-14.14v-.489l24.542,14.229a2.96,2.96,0,0,1,1.489,2.569v3.371a1.178,1.178,0,0,1-1.763,1.022l-24.269-14.072v-.572Z" transform="translate(-988.317 -1479.013)" fill="#fff"/><path d="M1012.563,1500.453l-24.269-14.072a.2.2,0,0,1-.1-.173v-.572a.2.2,0,0,1,.1-.173.2.2,0,0,1,.2,0l24.5,14.244a.517.517,0,0,0,.774-.449v-3.371a2.305,2.305,0,0,0-1.158-2l-24.315-14.141a.2.2,0,0,1-.1-.172v-.489a.2.2,0,0,1,.1-.173.2.2,0,0,1,.2,0l24.542,14.228a3.169,3.169,0,0,1,1.589,2.742v3.371a1.375,1.375,0,0,1-2.063,1.195Zm-23.969-20.99,24.213,14.082a2.7,2.7,0,0,1,1.359,2.343v3.371a.921.921,0,0,1-.919.919.9.9,0,0,1-.455-.125l-24.2-14.07v.11l24.168,14.014a.966.966,0,0,0,.484.131.981.981,0,0,0,.979-.979v-3.371a2.769,2.769,0,0,0-1.389-2.4l-24.243-14.054Z" transform="translate(-988.194 -1478.891)" fill="#273855"/></g><path d="M1074.251,1478.478c0,1.269.9,1.78,2,1.142a4.411,4.411,0,0,0,2-3.453c0-1.269-.9-1.78-2-1.141A4.412,4.412,0,0,0,1074.251,1478.478Zm.415-.239a3.5,3.5,0,0,1,1.587-2.739c.877-.507,1.588-.1,1.588.905a3.5,3.5,0,0,1-1.588,2.739C1075.376,1479.65,1074.666,1479.245,1074.666,1478.239Z" transform="translate(-1020.892 -1455.65)" fill="#273855"/><g transform="translate(33.76 23.272)"><path d="M1042.965,1494.878l14.679-8.9V1481.8l-14.679,8.9Z" transform="translate(-1042.765 -1481.601)" fill="#fff"/><path d="M1042.745,1494.93a.2.2,0,0,1-.1-.174v-4.176a.2.2,0,0,1,.1-.171l14.679-8.9a.2.2,0,0,1,.2,0,.2.2,0,0,1,.1.174v4.176a.2.2,0,0,1-.1.171l-14.679,8.9a.2.2,0,0,1-.2,0Zm14.577-12.9-14.28,8.658v3.709l14.28-8.659Z" transform="translate(-1042.643 -1481.479)" fill="#273855"/></g><g transform="translate(33.76 29.968)"><path d="M1046.6,1496.777l-3.636,2.2v-4.176l3.636-2.2Z" transform="translate(-1042.765 -1492.401)" fill="#3EB881"/><path d="M1042.745,1499.033a.2.2,0,0,1-.1-.174v-4.176a.2.2,0,0,1,.1-.171l3.636-2.2a.2.2,0,0,1,.3.171v4.176a.2.2,0,0,1-.1.171l-3.636,2.2a.2.2,0,0,1-.1.029A.2.2,0,0,1,1042.745,1499.033Zm3.534-6.2-3.237,1.963v3.709l3.237-1.962Z" transform="translate(-1042.643 -1492.279)" fill="#273855"/></g></g><path d="M966.62,1441.343a16,16,0,0,0-6.851-2.281c0-.146.019-.278.019-.426,0-20.738-14.651-46.009-32.724-56.443-14.534-8.391-26.837-4.614-31.106,7.965a32.732,32.732,0,0,0-3.416-2.313c-11.917-6.88-21.577-1.372-21.577,12.3s9.66,30.336,21.577,37.216l74.078,42.769c9.335,5.389,16.9,1.074,16.9-9.636S975.955,1446.731,966.62,1441.343Zm13.467,37.292a7.27,7.27,0,0,1-5.88,2.729h0a14.489,14.489,0,0,1-7.042-2.176l-74.078-42.77c-11.6-6.7-21.032-22.967-21.032-36.272,0-8.744,4.139-14.176,10.8-14.176a18.779,18.779,0,0,1,9.14,2.817,31.321,31.321,0,0,1,3.3,2.237l1.2.916.486-1.433c2.563-7.555,8.034-11.715,15.407-11.715,4.381,0,9.133,1.461,14.124,4.343,17.744,10.244,32.179,35.142,32.179,55.5,0,.052,0,.1-.007.149-.005.087-.011.174-.012.265l-.012,1.029,1.027.069a14.913,14.913,0,0,1,6.38,2.137c9.02,5.208,16.358,17.862,16.358,28.21C982.434,1473.908,981.622,1476.723,980.088,1478.635Z" transform="translate(0 -11.556)" fill="#c6f0f5" stroke="#273855" stroke-linecap="round" stroke-linejoin="round" stroke-width="1"/><path d="M1021,1439.808c0-10.711-7.567-23.763-16.9-29.152a16,16,0,0,0-6.851-2.281c0-.146.019-.278.019-.425,0-20.738-14.651-46.009-32.724-56.444-10.147-5.859-18.982-5.074-25.2-.919l-10.438,5.959c-5.9-3.061-11.171-3.04-14.886-.473l-31.27,18.175c3.8-1.659,8.8-1.12,14.275,2.041a32.694,32.694,0,0,1,3.416,2.313c4.269-12.579,16.572-16.356,31.106-7.965,18.073,10.434,32.724,35.7,32.724,56.443,0,.148-.018.28-.019.426a16,16,0,0,1,6.851,2.281c9.335,5.389,16.9,18.441,16.9,29.152,0,4.532-1.358,7.913-3.628,9.9l31.15-17.866-.018-.031C1018.878,1449.349,1021,1445.475,1021,1439.808Z" transform="translate(-4.475)" fill="#fff" stroke="#273855" stroke-linecap="round" stroke-linejoin="round" stroke-width="1"/></g></svg>