<svg xmlns="http://www.w3.org/2000/svg" width="102.526" height="152.817" viewBox="0 0 102.526 152.817"><g transform="translate(-408.921 -1452.179)"><g transform="translate(450.394 1452.179)"><g transform="translate(40.039 53.149)"><g transform="translate(1.83 5.355)"><path d="M853.3,554.532l-7.334,3.952,10.94,20.183h0l.014.03c.635,1.179,2.792,1.251,4.818.159s3.152-2.933,2.516-4.112l-.017-.029h0Z" transform="translate(-845.604 -554.172)" fill="#fff"/><path d="M858.93,579.975h0a2.511,2.511,0,0,1-2.34-1.123l-10.957-20.211a.365.365,0,0,1-.029-.275.36.36,0,0,1,.175-.214l7.335-3.952a.362.362,0,0,1,.488.145l10.939,20.183c.758,1.407-.412,3.427-2.646,4.63A6.442,6.442,0,0,1,858.93,579.975Zm-1.721-1.494.01.021c.514.956,2.573.969,4.335.022,1.816-.978,2.9-2.638,2.37-3.623L853.14,555l-6.7,3.611Z" transform="translate(-845.59 -554.157)" fill="#273855"/></g><g transform="translate(1.66 4.436)"><path d="M853.3,554.509c.635,1.18-.492,3.021-2.516,4.112s-4.183,1.02-4.819-.16.492-3.02,2.516-4.112S852.665,553.33,853.3,554.509Z" transform="translate(-845.427 -553.216)" fill="#273855"/><path d="M847.974,559.741a2.511,2.511,0,0,1-2.339-1.123c-.742-1.375.429-3.4,2.663-4.6a6.439,6.439,0,0,1,2.966-.817,2.511,2.511,0,0,1,2.339,1.123c.742,1.375-.429,3.4-2.663,4.6A6.426,6.426,0,0,1,847.974,559.741Zm3.29-5.819a5.716,5.716,0,0,0-2.625.73c-1.815.978-2.9,2.638-2.37,3.624.506.94,2.569.961,4.33.013,1.815-.978,2.9-2.638,2.37-3.623A1.835,1.835,0,0,0,851.264,553.922Z" transform="translate(-845.413 -553.201)" fill="#273855"/></g><path d="M848.422,548.959l-4.362,2.351,3.1,5.756h0l.006.012c.381.707,1.664.75,2.868.1s1.876-1.744,1.5-2.445l-.007-.011,0-.006Z" transform="translate(-843.699 -548.599)" fill="#3EB881"/><path d="M848.362,557.985h0a1.639,1.639,0,0,1-1.526-.75l-3.109-5.769a.366.366,0,0,1-.028-.274.357.357,0,0,1,.175-.213l4.362-2.351a.361.361,0,0,1,.488.147l3.1,5.756c.489.907-.232,2.2-1.633,2.951A3.964,3.964,0,0,1,848.362,557.985Zm-3.83-6.543,2.932,5.439a.964.964,0,0,0,.9.383h0a3.256,3.256,0,0,0,1.49-.417c1.1-.592,1.593-1.507,1.35-1.958l-2.941-5.457Z" transform="translate(-843.685 -548.585)" fill="#273855"/></g><g transform="translate(12.688 4.127)"><path d="M834.992,500.688c-5.431-3.136-10.357-3.5-13.96-1.544-.1.055-5.274,2.941-5.437,3.191,3.668-2.766,9.1-2.725,15.157.773,11.045,6.377,20,21.822,20,34.5,0,6.467-2.332,10.961-6.083,12.968a4.539,4.539,0,0,0,.976-.429c.107-.06,3.634-2.2,3.738-2.26,3.474-2.123,5.61-6.508,5.61-12.7C854.992,522.509,846.038,507.065,834.992,500.688Z" transform="translate(-815.234 -497.581)" fill="#c6f0f5"/><path d="M844.654,550.919a.36.36,0,0,1-.17-.678c3.8-2.032,5.892-6.524,5.892-12.65,0-12.54-8.891-27.875-19.819-34.185a17.808,17.808,0,0,0-8.8-2.7,9.975,9.975,0,0,0-4.84,1.175c-.287.17-.539.323-.733.446q-.2.134-.391.279a.36.36,0,0,1-.519-.484c.048-.073.109-.14.515-.4.25-.168.507-.324.772-.469,1.561-.927,4.184-2.392,4.281-2.443A10.7,10.7,0,0,1,826,497.566a18.51,18.51,0,0,1,9.158,2.8c11.127,6.425,20.18,22.04,20.18,34.808,0,6.109-2.053,10.728-5.782,13.007-.036.022-3.633,2.2-3.749,2.268a4.873,4.873,0,0,1-1.057.461A.362.362,0,0,1,844.654,550.919Zm-22.894-50.932a18.5,18.5,0,0,1,9.157,2.8c11.127,6.424,20.179,22.039,20.179,34.808,0,4.526-1.113,8.209-3.193,10.743l1.277-.773c3.505-2.144,5.437-6.544,5.437-12.392,0-12.539-8.891-27.874-19.82-34.185a17.808,17.808,0,0,0-8.8-2.7,9.981,9.981,0,0,0-4.811,1.16c-.044.024-.53.295-1.2.67A11.944,11.944,0,0,1,821.761,499.987Z" transform="translate(-815.22 -497.566)" fill="#273855"/></g><g transform="translate(0)"><ellipse cx="16.278" cy="28.196" rx="16.278" ry="28.196" transform="matrix(0.863, -0.505, 0.505, 0.863, 0, 16.431)" fill="#fff"/><path d="M839.6,552.148a18.5,18.5,0,0,1-9.157-2.794c-11.127-6.424-20.179-22.039-20.179-34.808,0-8.95,4.361-14.509,11.382-14.509a18.5,18.5,0,0,1,9.157,2.794c11.127,6.424,20.18,22.038,20.18,34.808C850.981,546.589,846.619,552.148,839.6,552.148Zm-17.954-51.391c-6.576,0-10.662,5.283-10.662,13.788,0,12.539,8.891,27.875,19.819,34.184a17.794,17.794,0,0,0,8.8,2.7c6.577,0,10.663-5.283,10.663-13.788,0-12.54-8.891-27.875-19.82-34.184A17.8,17.8,0,0,0,821.643,500.758Z" transform="translate(-802.338 -493.536)" fill="#273855"/></g><path d="M833.665,541.428c-7.94-4.584-14.377-15.687-14.377-24.8,0-3.7,1.074-6.482,2.866-8.2-3.079,1.247-5.037,4.6-5.037,9.618,0,9.112,6.437,20.214,14.376,24.8,4.716,2.723,8.889,2.515,11.511,0C840.491,543.869,837.233,543.488,833.665,541.428Z" transform="translate(-802.606 -493.864)" fill="#c6f0f5"/><g transform="translate(11.924 11.64)"><path d="M837.964,547.219a14.868,14.868,0,0,1-7.361-2.246c-8.921-5.151-16.179-17.67-16.179-27.909,0-7.095,3.6-11.679,9.178-11.679a14.875,14.875,0,0,1,7.361,2.246c8.922,5.151,16.18,17.671,16.18,27.908C847.143,542.635,843.54,547.219,837.964,547.219ZM823.6,506.106c-5.217,0-8.458,4.2-8.458,10.959,0,10.009,7.1,22.249,15.819,27.285a14.171,14.171,0,0,0,7,2.149c5.217,0,8.458-4.2,8.458-10.96,0-10.008-7.1-22.248-15.82-27.285A14.185,14.185,0,0,0,823.6,506.106Z" transform="translate(-814.424 -505.385)" fill="#273855"/></g></g><g transform="translate(-503.301 1266.645)"><path d="M912.9,246.644l5.264-3.04v50.669l-5.266,3.042Z" fill="#42cede" stroke="#273855" stroke-linecap="round" stroke-linejoin="round" stroke-width="1"/><path d="M953.13,225.194,918.168,243.6v50.669l70.212,40.538V284.139Z" fill="#42cede" stroke="#273855" stroke-linecap="round" stroke-linejoin="round" stroke-width="1"/><path d="M981.358,330.769,919.927,295.3V195.981l61.432,35.472Z" fill="#fff" stroke="#273855" stroke-linecap="round" stroke-linejoin="round" stroke-width="1"/><path d="M965.265,261.374,935.831,244.38a1.081,1.081,0,0,0-1.621.936l0,11.692a1.082,1.082,0,0,0,.54.937l29.44,17a1.081,1.081,0,0,0,1.622-.936l0-11.7A1.08,1.08,0,0,0,965.265,261.374Z" fill="#c6f0f5" stroke="#273855" stroke-linecap="round" stroke-linejoin="round" stroke-width="1"/><path d="M963.265,262.374,933.831,245.38a1.081,1.081,0,0,0-1.621.936l0,11.692a1.082,1.082,0,0,0,.54.937l29.44,17a1.081,1.081,0,0,0,1.622-.936l0-11.7A1.08,1.08,0,0,0,963.265,262.374Z" fill="#3EB881" stroke="#273855" stroke-miterlimit="10" stroke-width="1"/><path d="M970.427,236.257,936.6,216.72a.583.583,0,0,0-.874.5v.682a.584.584,0,0,0,.291.5l33.831,19.535a.583.583,0,0,0,.874-.505v-.68A.581.581,0,0,0,970.427,236.257Z" fill="#42cede"/><path d="M953.847,231.3a.458.458,0,0,0-.23-.4l-17.79-10.3v1.043a.461.461,0,0,0,.23.4l17.79,10.3Z" fill="#42cede" opacity="0.6"/><path d="M927.384,212.936a3.881,3.881,0,0,0,1.755,3.04c.97.559,1.756.106,1.756-1.013a3.88,3.88,0,0,0-1.756-3.04C928.17,211.363,927.384,211.817,927.384,212.936Z" fill="#42cede"/><path d="M971.85,247.383l-43.587-25.178a.586.586,0,0,0-.879.506v1.2a.585.585,0,0,0,.293.507L971.264,249.6a.586.586,0,0,0,.878-.507v-1.2A.583.583,0,0,0,971.85,247.383Z" fill="#42cede"/><path d="M971.85,252.16l-43.587-25.178a.586.586,0,0,0-.879.507v1.2a.585.585,0,0,0,.293.508l43.587,25.176a.585.585,0,0,0,.878-.507v-1.2A.586.586,0,0,0,971.85,252.16Z" fill="#42cede"/><path d="M971.85,256.938,928.263,231.76a.586.586,0,0,0-.879.507v1.2a.583.583,0,0,0,.293.507l43.587,25.177a.585.585,0,0,0,.878-.507v-1.2A.586.586,0,0,0,971.85,256.938Z" fill="#42cede"/><path d="M981.358,330.769l1.758-1.013,0-99.316-1.755,1.014Z" fill="#42cede" stroke="#273855" stroke-linecap="round" stroke-linejoin="round" stroke-width="1"/><path d="M919.926,195.981l1.755-1.012,61.433,35.471-1.755,1.014Z" fill="#fff" stroke="#273855" stroke-linecap="round" stroke-linejoin="round" stroke-width="1"/><path d="M912.9,297.315l70.211,40.537V287.181h-35.1L912.9,246.644Z" fill="#fff" stroke="#273855" stroke-linecap="round" stroke-linejoin="round" stroke-width="1"/><path d="M912.9,297.315,948.017,283.3l35.1,54.554Z" fill="#fff" stroke="#273855" stroke-linecap="round" stroke-linejoin="round" stroke-width="1"/><path d="M983.863,338.26l-30.716-50.672h-1.883Z" fill="#c6f0f5"/><path d="M912.221,297.315l32.616-13.02-1-1.16Z" fill="#c6f0f5"/><path d="M983.114,337.851l5.266-3.04V284.139l-5.266,3.042Z" fill="#c6f0f5" stroke="#273855" stroke-linecap="round" stroke-linejoin="round" stroke-width="1"/><path d="M939.005,259.064a.5.5,0,0,1-.035-.184.58.58,0,0,1,.006-.1l1.255-6.523c.038-.2.109-.265.216-.2l.842.486a.6.6,0,0,1,.215.452l1.257,7.976a.7.7,0,0,1,.005.1.26.26,0,0,1-.035.144c-.023.036-.049.045-.079.028l-.7-.4a.5.5,0,0,1-.183-.355l-.2-1.209-1.413-.816-.193.985c-.036.145-.1.193-.184.143l-.7-.4A.231.231,0,0,1,939.005,259.064Zm1.383-2.169.96.554-.48-3.161Z" fill="#fff"/><path d="M943.216,261.486a.626.626,0,0,1-.04-.221v-7.34a.366.366,0,0,1,.037-.188.065.065,0,0,1,.1-.029l1.526.882a2.711,2.711,0,0,1,1.1,1.3,5.392,5.392,0,0,1,.4,2.187,2.537,2.537,0,0,1-.4,1.7q-.4.409-1.1,0l-.615-.354v2.442a.355.355,0,0,1-.037.176.065.065,0,0,1-.1.029l-.776-.449A.256.256,0,0,1,943.216,261.486Zm1.594-3.338c.147.085.263.072.347-.042a1.146,1.146,0,0,0,.127-.645,2.4,2.4,0,0,0-.116-.779.834.834,0,0,0-.358-.479l-.6-.349V257.8Z" fill="#fff"/><path d="M946.877,263.6a.667.667,0,0,1-.039-.221v-7.34a.372.372,0,0,1,.037-.187.064.064,0,0,1,.1-.029l1.526.882a2.7,2.7,0,0,1,1.1,1.3,5.367,5.367,0,0,1,.4,2.186,2.539,2.539,0,0,1-.4,1.7q-.4.408-1.1,0l-.614-.355v2.443a.344.344,0,0,1-.038.176.064.064,0,0,1-.1.028l-.776-.448A.257.257,0,0,1,946.877,263.6Zm1.595-3.337c.146.085.262.071.347-.043a1.157,1.157,0,0,0,.126-.645,2.407,2.407,0,0,0-.115-.779.843.843,0,0,0-.358-.479l-.6-.348v1.945Z" fill="#fff"/><path d="M950.538,265.716a.649.649,0,0,1-.04-.221v-7.351a.325.325,0,0,1,.04-.181.066.066,0,0,1,.095-.025l.755.437a.244.244,0,0,1,.1.135.639.639,0,0,1,.037.225v5.858l1.618.935a.256.256,0,0,1,.1.142.638.638,0,0,1,.041.233v1.2a.3.3,0,0,1-.041.18.068.068,0,0,1-.1.022l-2.507-1.449A.261.261,0,0,1,950.538,265.716Z" fill="#fff"/><path d="M954.2,267.833a.644.644,0,0,1-.04-.221V265.2l-1.246-5.582a.606.606,0,0,1-.016-.134.258.258,0,0,1,.035-.143c.024-.036.05-.046.079-.029l.712.411a.326.326,0,0,1,.124.151.994.994,0,0,1,.069.21l.75,3.272.75-2.406a.3.3,0,0,1,.07-.129.092.092,0,0,1,.124-.008l.711.411a.238.238,0,0,1,.079.12.524.524,0,0,1,.034.183.359.359,0,0,1-.015.116l-1.246,4.143V268.2a.319.319,0,0,1-.04.18.069.069,0,0,1-.1.021l-.738-.425A.272.272,0,0,1,954.2,267.833Z" fill="#fff"/></g></g></svg>