<svg xmlns="http://www.w3.org/2000/svg" width="143.32" height="123.461" viewBox="0 0 143.32 123.461"><g transform="translate(-423.563 -1367.201)"><g transform="translate(441.742 1387.193)"><path d="M571.439,1477.96l-44.208-34.842-80.362,46.7,51.1,29.5Z" transform="translate(-446.798 -1415.851)" fill="#c6f0f5"/><path d="M529.238,1488.081l-.071,25.142,73.473-41.36.071-25.142Z" transform="translate(-478.07 -1417.221)" fill="#c7e6d3" stroke="#273855" stroke-linecap="round" stroke-linejoin="round" stroke-width="1"/><path d="M446.826,1465.849l-.071,25.142,51.1,29.5.071-25.142Z" transform="translate(-446.754 -1424.489)" fill="#fff" stroke="#273855" stroke-linecap="round" stroke-linejoin="round" stroke-width="1"/><path d="M571.439,1428.641l-51.1-29.5-73.473,41.36,51.1,29.5Z" transform="translate(-446.798 -1399.14)" fill="#fc9b00"/><path d="M571.439,1428.641l-51.1-29.5-73.473,41.36,51.1,29.5Z" transform="translate(-446.798 -1399.14)" fill="#fff" stroke="#273855" stroke-linecap="round" stroke-linejoin="round" stroke-width="1"/><g transform="translate(36.477 22.67)"><g transform="translate(7.741)"><path d="M558.649,1457.1l-3.53,2.053-37.046-21.391,3.52-2.053Z" transform="translate(-518.073 -1435.704)" fill="#c7e6d3"/></g><g transform="translate(0 4.499)"><path d="M546.154,1464.351l-3.52,2.053-37.046-21.391,3.52-2.053Z" transform="translate(-505.588 -1442.96)" fill="#c7e6d3"/></g></g><path d="M533.19,1489.763a50.512,50.512,0,0,1-16.885,2.931c-8.927-.142-32.565-4.59-35.626-7.326,0,0,12.478,7.254,22.729,9.9C515.4,1498.358,529.1,1492.925,533.19,1489.763Z" transform="translate(-459.645 -1431.906)" fill="#c7e6d3"/><path d="M533.19,1486.352s-15.324,4.968-22.448-9.96c0,0-14.215,13.232-30.063,5.566C480.679,1481.957,505.111,1497.657,533.19,1486.352Z" transform="translate(-459.645 -1428.495)" fill="#fff" stroke="#273855" stroke-linecap="round" stroke-linejoin="round" stroke-width="1"/><g transform="translate(55.139 9.173)"><path d="M551.2,1418.758a.263.263,0,0,1,.138-.136l5.364-2.972-1.192-.733a.1.1,0,0,1-.051-.117.265.265,0,0,1,.138-.136l1.174-.65a.615.615,0,0,1,.245-.076.328.328,0,0,1,.2.033l3.677,2.262a.091.091,0,0,1,.046.12.285.285,0,0,1-.142.139l-1.174.65a.577.577,0,0,1-.24.073.327.327,0,0,1-.2-.036l-1.192-.733-5.364,2.971a.577.577,0,0,1-.24.073.324.324,0,0,1-.2-.036l-.942-.58A.1.1,0,0,1,551.2,1418.758Z" transform="translate(-541.582 -1413.936)" fill="#3EB881"/><path d="M556.465,1422.5a.272.272,0,0,1,.133-.133l6.8-3.767a.659.659,0,0,1,.241-.078.314.314,0,0,1,.2.032l3.2,1.967a.092.092,0,0,1,.047.12.292.292,0,0,1-.143.139l-1.037.574a.576.576,0,0,1-.239.074.328.328,0,0,1-.2-.037l-2.14-1.317-1.331.737,1.991,1.224a.093.093,0,0,1,.047.121.293.293,0,0,1-.143.138l-.954.528a.615.615,0,0,1-.244.076.328.328,0,0,1-.2-.034l-1.991-1.225-1.362.755,2.194,1.35a.093.093,0,0,1,.047.121.294.294,0,0,1-.143.138l-1.037.575a.576.576,0,0,1-.239.073.324.324,0,0,1-.2-.037l-3.25-2A.088.088,0,0,1,556.465,1422.5Z" transform="translate(-543.58 -1415.678)" fill="#3EB881"/><path d="M563.478,1426.815a.267.267,0,0,1,.132-.133l6.8-3.767a.651.651,0,0,1,.241-.078.314.314,0,0,1,.2.032l.764.471c.1.064.115.148.032.252l-2.31,3.148,3.834-2.124a.643.643,0,0,1,.241-.078.3.3,0,0,1,.2.032l.86.529a.087.087,0,0,1,.043.119.315.315,0,0,1-.146.136l-6.788,3.761a.662.662,0,0,1-.241.078.313.313,0,0,1-.2-.031l-.765-.471c-.1-.065-.115-.148-.031-.252l2.159-3.057-3.688,2.043a.576.576,0,0,1-.239.073.328.328,0,0,1-.2-.036l-.86-.529A.086.086,0,0,1,563.478,1426.815Z" transform="translate(-546.244 -1417.317)" fill="#3EB881"/><path d="M571.352,1431.66a.27.27,0,0,1,.133-.133l6.8-3.767a.649.649,0,0,1,.241-.078.311.311,0,0,1,.2.032l1.781,1.1q1,.617.82,1.368t-1.539,1.533q-.3.172-.8.451t-.8.437q-2.937,1.549-4.976.294l-1.815-1.116A.087.087,0,0,1,571.352,1431.66Zm3.392.342a1.489,1.489,0,0,0,.945.213,3.388,3.388,0,0,0,1.222-.423q.317-.161.8-.427t.762-.438q.657-.379.756-.692t-.327-.575l-.644-.4-4.191,2.321Z" transform="translate(-549.236 -1419.158)" fill="#3EB881"/><path d="M579.205,1436.491a.272.272,0,0,1,.133-.133l6.8-3.766a.636.636,0,0,1,.242-.078.309.309,0,0,1,.2.031l3.2,1.967a.092.092,0,0,1,.047.121.291.291,0,0,1-.143.138l-1.037.575a.578.578,0,0,1-.239.073.328.328,0,0,1-.2-.037l-2.14-1.316-1.331.737,1.992,1.225a.092.092,0,0,1,.047.12.294.294,0,0,1-.143.139l-.953.528a.63.63,0,0,1-.245.076.324.324,0,0,1-.2-.034l-1.991-1.224-1.362.755,2.195,1.35a.092.092,0,0,1,.046.12.288.288,0,0,1-.143.139l-1.037.575a.585.585,0,0,1-.239.073.331.331,0,0,1-.2-.037l-3.251-2A.088.088,0,0,1,579.205,1436.491Z" transform="translate(-552.221 -1420.994)" fill="#3EB881"/><path d="M586.217,1440.805a.273.273,0,0,1,.133-.133l6.8-3.766a.646.646,0,0,1,.241-.079.313.313,0,0,1,.2.032l1.863,1.146q.894.551.77,1.208t-1.267,1.292a5.13,5.13,0,0,1-1.466.555,4.365,4.365,0,0,1-1.4.068l-1.641,1.979a.363.363,0,0,1-.1.076.512.512,0,0,1-.192.06.267.267,0,0,1-.17-.025l-.955-.588c-.131-.081-.13-.19.006-.327l1.528-1.718-.65-.4-2.294,1.271a.59.59,0,0,1-.239.074.335.335,0,0,1-.2-.037l-.928-.571A.088.088,0,0,1,586.217,1440.805Zm5.992-1.011a1.076,1.076,0,0,0,.669.148,1.931,1.931,0,0,0,.776-.251,1.017,1.017,0,0,0,.486-.448q.089-.227-.2-.407l-.752-.463-1.729.958Z" transform="translate(-554.885 -1422.633)" fill="#3EB881"/><path d="M535.7,1425.9a.269.269,0,0,1,.132-.133l6.8-3.767a.633.633,0,0,1,.241-.078.311.311,0,0,1,.2.032l1.863,1.146q.894.55.769,1.208t-1.266,1.292a5.152,5.152,0,0,1-1.467.555,4.386,4.386,0,0,1-1.4.068l-1.642,1.978a.367.367,0,0,1-.095.076.522.522,0,0,1-.193.059.264.264,0,0,1-.17-.025l-.955-.587q-.2-.121.006-.328l1.528-1.717-.65-.4-2.295,1.271a.579.579,0,0,1-.239.073.329.329,0,0,1-.2-.037l-.927-.57A.087.087,0,0,1,535.7,1425.9Zm5.992-1.011a1.074,1.074,0,0,0,.669.148,1.94,1.94,0,0,0,.776-.252,1.024,1.024,0,0,0,.487-.448c.059-.151-.009-.287-.2-.406l-.752-.463-1.729.957Z" transform="translate(-535.687 -1416.969)" fill="#3EB881"/><path d="M543.287,1430.567a.268.268,0,0,1,.133-.133l6.8-3.766a.649.649,0,0,1,.241-.078.311.311,0,0,1,.2.031l3.2,1.967a.091.091,0,0,1,.047.12.289.289,0,0,1-.143.139l-1.037.574a.567.567,0,0,1-.239.073.327.327,0,0,1-.2-.036l-2.14-1.317-1.331.737,1.991,1.224a.093.093,0,0,1,.047.121.292.292,0,0,1-.143.138l-.953.528a.621.621,0,0,1-.245.076.327.327,0,0,1-.2-.033l-1.991-1.225-1.362.755,2.194,1.35a.093.093,0,0,1,.047.121.291.291,0,0,1-.143.138l-1.037.575a.575.575,0,0,1-.239.073.333.333,0,0,1-.2-.036l-3.251-2A.088.088,0,0,1,543.287,1430.567Z" transform="translate(-538.572 -1418.743)" fill="#3EB881"/><path d="M551.45,1435.477a.949.949,0,0,1,.078-.859,2.162,2.162,0,0,1,.8-.734.483.483,0,0,1,.2-.06.285.285,0,0,1,.168.03l.9.554a.172.172,0,0,1,.091.1.292.292,0,0,1-.035.151.513.513,0,0,0-.14.4c.016.136.128.268.335.4a1.6,1.6,0,0,0,.735.25,1.193,1.193,0,0,0,.673-.143.489.489,0,0,0,.26-.262.45.45,0,0,0-.074-.34,3.883,3.883,0,0,0-.4-.532,1.408,1.408,0,0,1-.462-1.177q.107-.535,1.06-1.063a4.578,4.578,0,0,1,1.391-.5,4.369,4.369,0,0,1,1.455-.03,3.392,3.392,0,0,1,1.282.458,1.452,1.452,0,0,1,.712.812,1.075,1.075,0,0,1-.125.854,1.921,1.921,0,0,1-.691.671.534.534,0,0,1-.2.065.264.264,0,0,1-.169-.024l-.949-.583a.152.152,0,0,1-.042-.246.378.378,0,0,0,.162-.335.481.481,0,0,0-.268-.342,1.16,1.16,0,0,0-1.215-.024q-.3.168-.273.389a1.593,1.593,0,0,0,.407.661,2.315,2.315,0,0,1,.567.87.813.813,0,0,1-.136.725,2.694,2.694,0,0,1-.895.7,4.624,4.624,0,0,1-3.033.516,3.843,3.843,0,0,1-1.348-.5A1.855,1.855,0,0,1,551.45,1435.477Z" transform="translate(-541.651 -1420.653)" fill="#3EB881"/><path d="M557.572,1439.356a.274.274,0,0,1,.133-.133l6.8-3.766a.647.647,0,0,1,.241-.079.314.314,0,0,1,.2.032l1.916,1.179q.881.541.763,1.192t-1.311,1.312a4.91,4.91,0,0,1-2.287.681,3.564,3.564,0,0,1-1.973-.522l-.773-.475-2.263,1.253a.611.611,0,0,1-.23.073.314.314,0,0,1-.2-.032l-.975-.6A.089.089,0,0,1,557.572,1439.356Zm5.946-.954a1.086,1.086,0,0,0,.662.144,2.008,2.008,0,0,0,.825-.27,1.165,1.165,0,0,0,.515-.455c.07-.153,0-.291-.2-.417l-.759-.467-1.8,1Z" transform="translate(-544 -1422.083)" fill="#3EB881"/><path d="M566.488,1444.206q.168-.742,1.538-1.541.286-.166.894-.5t.918-.5a6.521,6.521,0,0,1,2.725-.817,3.849,3.849,0,0,1,2.263.517q.94.579.758,1.342t-1.54,1.546q-.594.345-.9.513t-.915.49a6.536,6.536,0,0,1-2.713.818,3.815,3.815,0,0,1-2.236-.531Q566.32,1444.948,566.488,1444.206Zm3.258.626a3.429,3.429,0,0,0,1.234-.423q.622-.328.884-.473t.835-.479a1.751,1.751,0,0,0,.788-.7q.12-.312-.232-.528a1.41,1.41,0,0,0-.9-.167,3.43,3.43,0,0,0-1.234.423q-.3.158-.855.466t-.863.486a1.749,1.749,0,0,0-.787.7q-.121.312.239.533A1.4,1.4,0,0,0,569.745,1444.832Z" transform="translate(-547.382 -1424.158)" fill="#3EB881"/><path d="M572.8,1448.723a.276.276,0,0,1,.133-.133l6.8-3.766a.647.647,0,0,1,.241-.079.315.315,0,0,1,.2.031l.765.471c.1.064.114.148.032.252l-2.31,3.148,3.834-2.124a.645.645,0,0,1,.241-.078.312.312,0,0,1,.2.032l.86.529a.087.087,0,0,1,.043.118.316.316,0,0,1-.146.137l-6.789,3.76a.652.652,0,0,1-.241.078.314.314,0,0,1-.2-.032l-.765-.47q-.156-.1-.032-.252l2.159-3.057-3.688,2.043a.573.573,0,0,1-.239.073.318.318,0,0,1-.2-.036l-.86-.529A.088.088,0,0,1,572.8,1448.723Z" transform="translate(-549.786 -1425.642)" fill="#3EB881"/><path d="M581.825,1454.165a.949.949,0,0,1,.077-.859,2.16,2.16,0,0,1,.8-.735.482.482,0,0,1,.2-.06.274.274,0,0,1,.167.03l.9.554a.17.17,0,0,1,.091.1.29.29,0,0,1-.035.15.512.512,0,0,0-.14.4c.015.137.128.269.335.4a1.61,1.61,0,0,0,.735.25,1.192,1.192,0,0,0,.673-.143.49.49,0,0,0,.26-.263.448.448,0,0,0-.074-.339,3.888,3.888,0,0,0-.4-.532,1.406,1.406,0,0,1-.461-1.178q.106-.534,1.06-1.063a4.6,4.6,0,0,1,1.392-.5,4.352,4.352,0,0,1,1.455-.03,3.384,3.384,0,0,1,1.282.458,1.453,1.453,0,0,1,.713.812,1.071,1.071,0,0,1-.127.853,1.908,1.908,0,0,1-.69.672.548.548,0,0,1-.2.065.262.262,0,0,1-.169-.025l-.949-.583q-.149-.091-.042-.246a.376.376,0,0,0,.162-.335.48.48,0,0,0-.268-.342,1.158,1.158,0,0,0-1.214-.025q-.3.168-.273.389a1.6,1.6,0,0,0,.407.661,2.312,2.312,0,0,1,.567.869.815.815,0,0,1-.136.725,2.679,2.679,0,0,1-.895.706,4.584,4.584,0,0,1-1.5.522,4.518,4.518,0,0,1-1.533-.006,3.842,3.842,0,0,1-1.348-.5A1.86,1.86,0,0,1,581.825,1454.165Z" transform="translate(-553.193 -1427.754)" fill="#3EB881"/><path d="M587.947,1458.043a.278.278,0,0,1,.133-.133l6.8-3.766a.634.634,0,0,1,.241-.078.31.31,0,0,1,.2.031l3.2,1.967a.092.092,0,0,1,.047.121.292.292,0,0,1-.143.138l-1.037.575a.578.578,0,0,1-.24.073.327.327,0,0,1-.2-.037l-2.14-1.316-1.331.737,1.991,1.225a.092.092,0,0,1,.047.12.293.293,0,0,1-.143.139l-.953.528a.62.62,0,0,1-.245.076.325.325,0,0,1-.2-.033l-1.991-1.225-1.362.754,2.195,1.35a.092.092,0,0,1,.047.12.293.293,0,0,1-.143.139l-1.038.575a.585.585,0,0,1-.239.073.331.331,0,0,1-.2-.037l-3.251-2A.088.088,0,0,1,587.947,1458.043Z" transform="translate(-555.543 -1429.184)" fill="#3EB881"/></g></g><g transform="translate(454.371 1367.701)"><path d="M525.032,1419.158l-37.867-21.863a4.937,4.937,0,0,0-4.483,0l-14.612,8.492c-1.234.717-1.227,1.879.017,2.6l37.867,21.863a4.938,4.938,0,0,0,4.481,0l14.612-8.492C526.28,1421.036,526.273,1419.875,525.032,1419.158Z" transform="translate(-467.133 -1378.741)" fill="#c6f0f5" style="mix-blend-mode:multiply;isolation:isolate"/><g transform="translate(0 8.898)"><g style="isolation:isolate"><path d="M525.95,1412.176a.871.871,0,0,1-.011.1c0,.027-.013.054-.02.081s-.016.063-.027.095-.022.052-.033.078a1.082,1.082,0,0,1-.047.1c-.012.024-.028.047-.042.071s-.047.074-.074.11-.034.043-.052.064a1.819,1.819,0,0,1-.134.145c-.018.017-.034.035-.053.051s-.064.054-.1.08-.058.048-.09.071-.075.051-.113.076-.078.052-.12.077l-14.612,8.492c-.095.055-.2.1-.3.151l-.091.038c-.081.034-.164.065-.249.094l-.091.032c-.054.017-.108.031-.164.046l-.124.034c-.058.014-.117.025-.176.037-.04.008-.079.017-.118.024-.118.021-.239.038-.36.05-.038,0-.075.006-.113.009-.071.006-.143.011-.215.014l-.136,0h-.174l-.144,0-.161-.008-.146-.012-.158-.018-.141-.02c-.056-.009-.112-.019-.168-.029l-.131-.027c-.066-.015-.131-.031-.2-.048-.037-.009-.073-.019-.108-.029-.117-.034-.231-.072-.34-.115l-.045-.019a3.446,3.446,0,0,1-.43-.206L468.076,1400a1.588,1.588,0,0,1-.937-1.308l-.015,5.227a1.589,1.589,0,0,0,.938,1.308l37.867,21.863a3.424,3.424,0,0,0,.43.206c.009,0,.017.009.027.013l.017.006c.11.043.224.081.34.115l.027.009.081.02c.065.017.13.034.2.048l.053.013.079.014.168.029.068.012.074.008.158.018.076.008.071,0,.161.009.08,0h.064c.058,0,.116,0,.174,0h.086l.05,0c.072,0,.143-.008.215-.014.029,0,.058,0,.086-.005l.027,0q.182-.018.36-.05l.017,0,.1-.022c.059-.012.118-.024.176-.037l.124-.034c.055-.015.11-.03.164-.047l.035-.01.056-.021c.085-.029.168-.06.249-.094l.091-.039a3.249,3.249,0,0,0,.3-.151l14.612-8.492.038-.022c.029-.018.054-.036.082-.055s.078-.05.114-.076.06-.047.089-.071.066-.053.1-.08l.02-.016c.012-.011.021-.023.033-.035a1.8,1.8,0,0,0,.134-.144c.009-.011.021-.021.03-.032s.014-.022.022-.032c.027-.036.052-.073.074-.11.009-.015.022-.031.031-.046a.225.225,0,0,0,.011-.024,1.02,1.02,0,0,0,.046-.1c.008-.019.02-.038.027-.058s0-.013.006-.019c.011-.031.019-.063.027-.095s.014-.043.019-.064c0-.006,0-.012,0-.017.006-.033.009-.066.012-.1s.006-.043.007-.064v-.028l.015-5.227C525.958,1412.114,525.953,1412.145,525.95,1412.176Z" transform="translate(-467.124 -1388.375)" fill="#c6f0f5" stroke="#273855" stroke-linecap="round" stroke-linejoin="round" stroke-width="1"/><path d="M525.032,1404.453l-37.867-21.863a4.937,4.937,0,0,0-4.483,0l-14.612,8.492c-1.234.717-1.227,1.879.017,2.6l37.867,21.863a4.939,4.939,0,0,0,4.481,0l14.612-8.492C526.28,1406.331,526.273,1405.17,525.032,1404.453Z" transform="translate(-467.133 -1382.051)" fill="#fff" stroke="#273855" stroke-linecap="round" stroke-linejoin="round" stroke-width="1"/></g></g><g transform="translate(19.569)"><g transform="translate(0 14.972)"><g style="isolation:isolate"><path d="M518.424,1401.066c0,.058,0,.116-.008.174s-.006.1-.011.149-.01.087-.016.13-.014.1-.023.148-.017.087-.027.13-.022.1-.035.145-.025.086-.038.13-.03.1-.047.143-.032.084-.048.126-.041.1-.063.15-.038.084-.058.125-.05.1-.076.148-.043.079-.066.119c-.034.059-.071.117-.109.175-.023.035-.045.07-.069.1-.043.064-.091.128-.139.191-.021.027-.04.056-.063.083-.079.1-.165.2-.255.3-.023.025-.048.05-.072.075q-.107.113-.224.223c-.035.034-.071.067-.107.1s-.094.083-.143.124-.089.076-.135.113-.1.081-.156.122-.1.073-.146.109-.11.079-.167.118-.1.071-.157.106-.118.076-.179.113c-.076.047-.15.094-.229.14-.213.125-.437.239-.665.349l-.182.085c-.205.095-.415.185-.63.269l-.085.035c-.231.088-.468.167-.707.243-.167.052-.337.1-.508.145-.129.035-.257.073-.388.1-.179.043-.361.079-.544.116-.133.027-.264.058-.4.081l-.165.026q-.339.056-.683.1l-.2.024c-.131.014-.265.022-.4.033-.221.019-.443.035-.666.045-.142.006-.285.009-.427.012-.18,0-.36.005-.539,0-.151,0-.3-.007-.452-.012q-.25-.01-.5-.027-.228-.016-.456-.038c-.164-.016-.328-.034-.491-.055s-.3-.04-.441-.063q-.262-.041-.521-.091c-.137-.026-.273-.053-.409-.083-.206-.045-.409-.1-.611-.149-.131-.035-.263-.067-.392-.105-.069-.021-.138-.043-.208-.064q-.3-.1-.6-.2c-.056-.021-.115-.041-.171-.063-.179-.069-.35-.146-.523-.222-.084-.038-.172-.072-.255-.111-.249-.118-.49-.243-.723-.377a5.487,5.487,0,0,1-2.809-3.24,3.4,3.4,0,0,1-.1-.825h0l-.027,5.3c0,1.47.967,2.943,2.91,4.065.232.134.474.259.722.377.083.04.171.074.255.111.147.066.291.133.443.193.026.011.053.019.079.029.056.022.115.042.172.063.2.073.4.141.6.2.069.022.138.044.208.064.047.014.092.03.138.043.082.024.169.04.252.062.2.053.405.1.613.15.055.012.108.029.163.04.081.017.164.027.245.043.174.033.347.063.523.091.07.01.138.026.208.036s.154.016.231.026c.164.02.327.039.492.055.078.008.156.02.234.027s.148.006.221.012c.167.011.333.02.5.027.084,0,.166.011.25.013.067,0,.134,0,.2,0,.18,0,.36,0,.541,0,.089,0,.179,0,.268,0,.053,0,.105-.009.159-.011.223-.01.445-.026.666-.045.089-.008.179-.009.268-.018l.129-.015.2-.024q.343-.041.681-.1c.055-.009.112-.017.167-.027l.079-.012c.107-.019.211-.047.317-.068.183-.037.366-.073.545-.117.131-.032.259-.069.388-.1.171-.047.341-.092.508-.145.036-.011.073-.019.108-.03.2-.066.4-.137.6-.212l.086-.035c.215-.084.424-.174.63-.269l.181-.085c.228-.11.451-.225.665-.35l.12-.071c.037-.022.071-.046.107-.068.061-.038.122-.076.18-.114s.105-.071.157-.106.112-.077.167-.117.1-.073.146-.11.1-.08.155-.121.091-.074.135-.112.1-.083.143-.125l.058-.05c.017-.016.032-.033.049-.049.078-.074.152-.148.224-.223.024-.025.048-.049.071-.074.091-.1.176-.2.255-.3l.012-.013c.018-.023.033-.047.051-.071.048-.063.095-.126.139-.19.024-.035.045-.069.068-.1.038-.058.074-.117.109-.176.009-.016.02-.032.029-.048s.024-.048.037-.071c.027-.049.052-.1.076-.147s.04-.084.058-.125.043-.1.063-.149c.009-.023.02-.045.029-.067s.012-.04.02-.061c.017-.047.032-.095.047-.142s.027-.087.038-.131.024-.1.035-.144c.006-.026.014-.051.019-.078s.005-.035.008-.052c.009-.05.016-.1.023-.149s.012-.086.017-.129.008-.1.011-.149c0-.029.005-.058.006-.087s0-.058,0-.087h0Z" transform="translate(-498.687 -1395.331)" fill="#c6f0f5" stroke="#273855" stroke-linecap="round" stroke-linejoin="round" stroke-width="1"/><path d="M515.532,1393.521a15.356,15.356,0,0,0-13.938,0c-3.837,2.229-3.817,5.843.045,8.073a15.355,15.355,0,0,0,13.935,0C519.412,1399.364,519.392,1395.75,515.532,1393.521Z" transform="translate(-498.703 -1391.849)" fill="#fff" stroke="#273855" stroke-linecap="round" stroke-linejoin="round" stroke-width="1"/></g></g><g transform="translate(4.212 6.503)"><path d="M516.8,1381.48c0,.024,0,.047,0,.073a.086.086,0,0,0,0,.025.411.411,0,0,1,0,.049c0,.028-.006.053-.01.081,0,.01,0,.021,0,.03s0,.03-.006.047-.01.053-.017.079,0,.023-.006.034a.261.261,0,0,1-.009.042c-.006.026-.015.053-.023.079a.291.291,0,0,1-.011.036.226.226,0,0,1-.011.038c-.009.028-.019.053-.03.079s-.009.026-.013.036-.008.026-.015.038a.821.821,0,0,1-.036.079c-.006.015-.013.027-.019.04s-.009.021-.015.034-.03.051-.043.079-.015.028-.023.04l-.017.03c-.017.028-.034.053-.051.079a.607.607,0,0,1-.034.051.181.181,0,0,1-.01.019l-.06.079a.141.141,0,0,1-.009.013c-.012.015-.024.032-.036.047l0,.006-.066.077c-.019.023-.036.045-.057.068s-.047.049-.073.074-.041.045-.062.064-.055.053-.083.079l-.032.03c-.011.011-.021.019-.032.03-.03.025-.062.051-.094.076a.31.31,0,0,1-.034.03c-.011.009-.021.018-.032.028-.034.025-.068.051-.1.077a.45.45,0,0,1-.036.028c-.011.008-.021.017-.034.025-.043.03-.087.06-.135.089l-.017.013c-.011.009-.024.015-.034.024-.064.04-.13.081-.2.122s-.171.1-.26.14c-.023.013-.051.026-.076.039-.068.034-.139.068-.209.1l-.071.032-.283.115-.049.017c-.081.03-.164.06-.247.087l-.1.032-.136.043-.117.032c-.047.016-.094.026-.141.038s-.079.022-.119.03-.1.024-.143.034l-.122.026-.147.03c-.038.006-.074.012-.113.021-.107.017-.213.036-.32.051l-.047,0c-.092.012-.185.023-.281.034-.036,0-.073.006-.107.011-.062.006-.122.01-.184.015l-.113.009c-.064,0-.128.006-.19.008-.036,0-.073,0-.109,0-.055,0-.109,0-.164,0l-.117,0-.175,0c-.034,0-.07,0-.1,0l-.16-.007-.115,0-.174-.013-.1-.006-.2-.019-.066-.007c-.091-.011-.181-.021-.27-.034l-.043-.006-.23-.036-.1-.019-.175-.032-.089-.021c-.064-.013-.128-.028-.192-.043l-.1-.025c-.058-.015-.115-.03-.17-.047l-.1-.025-.268-.083c-.015-.007-.032-.01-.047-.017-.1-.034-.2-.07-.3-.109-.04-.015-.079-.032-.119-.047l-.094-.038-.132-.059-.085-.039c-.047-.023-.094-.046-.139-.07-.024-.013-.049-.023-.073-.037-.068-.036-.136-.072-.2-.11s-.136-.081-.2-.124a.72.72,0,0,1-.064-.043c-.043-.027-.085-.055-.123-.083s-.047-.036-.071-.053-.073-.051-.107-.079-.047-.038-.068-.058-.064-.051-.094-.076-.045-.041-.068-.062l-.081-.077c-.023-.021-.042-.043-.064-.064s-.051-.051-.074-.077-.036-.045-.055-.066-.047-.053-.068-.079-.034-.045-.049-.068-.043-.052-.062-.079-.03-.047-.045-.068-.037-.053-.051-.081-.028-.047-.04-.071-.032-.053-.045-.081-.024-.049-.034-.073-.026-.053-.038-.081-.019-.049-.028-.074-.021-.053-.03-.079-.015-.052-.024-.077-.017-.053-.024-.081-.011-.049-.015-.074-.012-.053-.017-.081-.007-.051-.011-.076-.007-.053-.009-.081,0-.051,0-.077,0-.053,0-.081v-.009a2.808,2.808,0,0,1,1.644-2.3,8.8,8.8,0,0,1,7.991,0A2.831,2.831,0,0,1,516.8,1381.48Z" transform="translate(-505.486 -1378.189)" fill="#c1272d"/><path d="M516.793,1383.481l0,3.924-.006,7.157v.015c0,.028,0,.056,0,.084l-.006.087c0,.024-.006.05-.009.073s-.009.058-.015.085a.082.082,0,0,1,0,.024.384.384,0,0,1-.011.051l-.019.083c-.009.026-.015.049-.024.075l-.025.081c0,.01-.009.022-.013.03s-.011.03-.015.043l-.036.087c-.011.023-.022.047-.034.07s-.028.058-.043.086a.293.293,0,0,0-.021.039c-.007.01-.011.019-.017.03-.019.034-.04.066-.061.1a.689.689,0,0,1-.041.06c-.025.038-.051.074-.079.111-.011.012-.019.026-.03.038l-.006.009a2.218,2.218,0,0,1-.148.17c-.012.015-.027.03-.04.043a1.789,1.789,0,0,1-.128.128.365.365,0,0,0-.028.028.223.223,0,0,0-.034.03c-.028.023-.053.049-.081.073l-.079.064c-.03.024-.058.047-.089.071l-.083.061-.1.068c-.03.019-.059.041-.089.059s-.068.045-.1.066-.041.025-.062.037-.047.03-.07.042c-.083.049-.171.1-.26.141-.025.015-.051.026-.077.039-.068.034-.138.068-.208.1l-.073.032q-.138.06-.281.115l-.052.017c-.081.03-.162.06-.245.087l-.04.013-.062.019-.136.043-.117.034c-.047.012-.094.025-.141.036s-.079.021-.119.03-.1.023-.143.034l-.122.026c-.049.011-.1.019-.147.03-.028,0-.055.01-.083.015l-.03.006c-.107.019-.213.036-.32.051-.015,0-.03,0-.045,0-.094.013-.19.026-.283.034a.276.276,0,0,1-.045,0l-.062.006c-.062.007-.122.011-.184.016l-.113.008c-.064,0-.128.007-.192.009-.026,0-.051,0-.077,0a.162.162,0,0,0-.03,0l-.166,0-.115,0-.175,0c-.03,0-.062,0-.092,0h-.015c-.053,0-.107,0-.16-.006-.038,0-.076,0-.113,0-.058,0-.115-.006-.172-.01l-.1-.006-.006,0c-.068,0-.135-.012-.2-.019l-.07-.006c-.09-.011-.179-.021-.268-.034h0l-.036-.006c-.079-.011-.158-.024-.234-.037l-.1-.019-.175-.032a.057.057,0,0,0-.019,0c-.024-.006-.047-.011-.07-.015l-.192-.045-.1-.026-.171-.045c-.017-.006-.037-.01-.053-.015l-.045-.013c-.09-.027-.177-.053-.267-.083a.412.412,0,0,0-.047-.015c-.1-.034-.2-.073-.3-.11a.185.185,0,0,1-.03-.011l-.09-.036-.094-.039-.132-.059-.085-.039-.141-.071c-.024-.012-.047-.023-.071-.034-.068-.036-.136-.074-.2-.113a2.828,2.828,0,0,1-1.669-2.329l.006-7.125,0-3.949c0,.027,0,.055,0,.081s0,.052,0,.077.006.055.009.081.006.051.011.076.011.053.017.081.009.051.015.074.015.056.024.081.015.051.024.077.019.053.03.079.017.051.028.074.025.053.038.081.021.049.034.073.03.053.045.081.025.047.04.071.034.053.051.081l.045.068c.019.028.04.053.062.079s.032.047.049.068.045.053.068.079.036.045.055.066.049.051.074.077.041.043.064.064l.081.077c.024.021.045.043.068.062s.062.051.094.076.045.041.068.058.071.053.107.079.045.036.071.053.081.056.123.083c.021.016.043.03.064.043.066.043.132.083.2.124s.134.074.2.11c.024.013.049.024.073.036.045.024.092.047.139.07l.085.038.132.06.094.038c.04.015.079.032.119.047.1.039.2.074.3.109.015.007.032.01.047.017l.268.083.1.025c.055.017.113.032.17.047l.1.025c.064.015.128.03.192.043l.089.021.175.032.1.019.23.036.043.006c.089.013.179.024.27.034l.066.007.2.019.1.006.174.013.115,0,.16.007c.034,0,.07,0,.1,0l.175,0,.117,0c.056,0,.109,0,.164,0,.036,0,.073,0,.109,0,.062,0,.126,0,.19-.008l.113-.009c.062,0,.122-.009.184-.015.034,0,.071-.006.107-.01.1-.011.19-.022.281-.034l.047,0c.107-.015.213-.034.32-.051.038-.009.074-.015.113-.021l.147-.03.122-.026c.047-.01.1-.021.143-.034s.079-.019.119-.03.094-.023.141-.038l.117-.032.136-.043.1-.032c.083-.028.166-.058.247-.088l.049-.017.283-.115.071-.032c.07-.032.141-.066.209-.1.025-.012.053-.025.076-.038.09-.045.177-.091.26-.14s.136-.081.2-.122c.011-.009.024-.015.034-.024l.017-.013c.047-.03.092-.06.135-.089.013-.009.024-.017.034-.025a.4.4,0,0,0,.036-.028c.037-.025.071-.052.1-.077a.42.42,0,0,1,.032-.028.31.31,0,0,0,.034-.03c.032-.026.065-.051.094-.076.01-.011.021-.019.032-.03l.032-.03c.028-.025.058-.051.083-.079s.043-.043.062-.064.051-.049.073-.074.038-.045.057-.068l.066-.077,0-.006c.012-.015.024-.032.036-.047a.143.143,0,0,0,.009-.013l.06-.079a.182.182,0,0,0,.01-.019.606.606,0,0,0,.034-.051c.017-.026.034-.052.051-.079l.017-.03c.009-.012.015-.027.023-.04.013-.028.03-.053.043-.079s.01-.024.015-.034.013-.025.019-.04a.821.821,0,0,0,.036-.079c.007-.012.009-.026.015-.038s.009-.023.013-.036.021-.051.03-.079a.224.224,0,0,0,.011-.038.293.293,0,0,0,.011-.036c.008-.026.017-.053.023-.079a.264.264,0,0,0,.009-.042c0-.011,0-.022.006-.034s.013-.053.017-.079,0-.032.006-.047,0-.019,0-.03c0-.028.008-.053.01-.081a.409.409,0,0,0,0-.049.086.086,0,0,1,0-.025C516.792,1383.528,516.793,1383.505,516.793,1383.481Z" transform="translate(-505.48 -1380.19)" fill="#fff" stroke="#273855" stroke-linecap="round" stroke-linejoin="round" stroke-width="1"/></g><path d="M516.591,1384.123l0,3.563c-.016.015-.033.028-.048.042l-.086.072-.1.075-.091.068-.1.073c-.033.022-.064.045-.1.066s-.074.048-.112.072c-.021.014-.043.029-.066.042s-.05.029-.076.045c-.133.078-.273.15-.414.217-.038.019-.075.037-.114.054-.128.058-.259.114-.392.169-.018.006-.035.014-.055.021-.121.047-.245.091-.373.131-.022.008-.045.012-.068.019-.1.034-.21.062-.317.091-.079.021-.159.045-.24.064-.112.027-.226.05-.341.074-.066.014-.131.031-.2.042-.017,0-.035,0-.05.008l-.1.017c-.141.021-.282.043-.425.06l-.124.014c-.027,0-.054.007-.081.009-.056.006-.112.008-.166.012-.14.012-.277.021-.416.027l-.1.007c-.056,0-.112,0-.168,0-.112,0-.224,0-.337,0-.043,0-.083,0-.126,0s-.1-.006-.155-.007c-.1,0-.209-.01-.311-.017-.047,0-.093,0-.139-.006l-.145-.017c-.1-.009-.205-.021-.308-.035-.048-.005-.1-.007-.145-.016s-.086-.016-.13-.023c-.11-.015-.219-.035-.327-.056-.05-.01-.1-.016-.153-.027-.033-.005-.066-.017-.1-.025-.13-.027-.255-.06-.383-.093-.05-.014-.1-.023-.157-.039l-.087-.027-.13-.041c-.126-.038-.25-.081-.373-.128-.035-.011-.072-.025-.107-.038l-.05-.017c-.093-.037-.184-.079-.275-.12-.055-.025-.108-.047-.161-.069-.155-.074-.306-.153-.451-.236a5.119,5.119,0,0,1-.787-.555l0-3.586v-.008a2.551,2.551,0,0,1,1.492-2.086,7.992,7.992,0,0,1,7.254,0A2.57,2.57,0,0,1,516.591,1384.123Z" transform="translate(-501.589 -1372.806)" fill="#c6f0f5"/><g transform="translate(1.699)"><g style="isolation:isolate"><path d="M517.767,1375.331c0,.048,0,.1-.007.143s0,.083-.009.123-.009.072-.014.107-.011.082-.019.122-.014.072-.022.108-.018.079-.029.12-.02.071-.031.107-.025.079-.04.119-.025.07-.04.1-.033.083-.052.124-.031.069-.048.1-.042.082-.063.123-.036.066-.055.1c-.029.048-.059.1-.09.145-.019.029-.037.058-.056.087-.037.053-.076.105-.115.158-.017.023-.034.046-.051.069q-.1.125-.211.247c-.019.021-.04.042-.06.062-.059.062-.121.123-.185.184l-.089.083-.118.1c-.037.032-.074.063-.112.094s-.085.068-.128.1-.079.061-.121.09l-.138.1c-.043.03-.086.059-.13.088l-.148.094c-.062.038-.124.078-.189.115-.177.1-.361.2-.551.289l-.15.071q-.255.118-.521.223l-.071.029c-.191.073-.387.138-.586.2-.138.043-.279.081-.42.12-.107.029-.213.06-.321.087-.148.036-.3.066-.45.1-.11.022-.219.048-.33.067l-.137.022q-.281.047-.565.08c-.055.007-.11.014-.166.02-.109.012-.219.019-.329.027-.184.016-.367.029-.551.037-.118.005-.236.007-.353.01-.149,0-.3,0-.447,0q-.187,0-.374-.01c-.138-.006-.276-.012-.414-.022s-.252-.02-.377-.032-.272-.029-.407-.045-.244-.033-.365-.052c-.145-.022-.289-.048-.432-.075-.113-.022-.226-.044-.339-.068-.171-.038-.339-.08-.507-.124-.108-.029-.218-.056-.324-.087-.058-.017-.115-.035-.172-.053q-.252-.079-.5-.169c-.047-.017-.1-.034-.142-.052-.148-.057-.29-.12-.433-.184-.07-.031-.143-.059-.211-.092q-.309-.146-.6-.312a4.54,4.54,0,0,1-2.326-2.682,2.817,2.817,0,0,1-.083-.683h0l-.022,4.391c0,1.217.8,2.437,2.409,3.365.192.111.392.214.6.312.069.033.141.061.211.092.121.054.241.11.366.159l.066.024.143.052q.244.09.495.169l.172.053.115.036c.069.019.14.033.209.051.168.045.336.087.507.125.046.01.089.024.135.033.067.014.136.022.2.035.143.027.288.053.433.075.058.009.115.022.173.03s.128.013.192.021c.135.017.271.032.407.046.065.006.129.016.194.022s.122.005.183.009c.138.01.275.017.414.022.069,0,.138.009.207.011s.11,0,.166,0c.149,0,.3,0,.448,0,.074,0,.148,0,.221,0,.044,0,.087-.007.131-.009.185-.008.368-.022.552-.037.074-.006.148-.007.221-.014l.107-.013.166-.02c.19-.023.378-.049.564-.08l.138-.022.066-.01c.089-.016.175-.039.263-.056.151-.031.3-.06.451-.1.109-.027.214-.058.321-.087.141-.038.283-.076.421-.12.029-.009.06-.016.089-.026q.252-.082.5-.175l.071-.029q.267-.1.521-.223l.15-.071c.188-.091.374-.186.551-.289l.1-.059.088-.056.15-.094c.044-.029.087-.058.129-.088s.094-.065.138-.1.082-.06.122-.091.086-.066.128-.1l.112-.093c.04-.035.08-.069.118-.1l.048-.042c.014-.013.026-.027.04-.04q.1-.091.185-.184c.02-.021.04-.041.06-.062.075-.081.146-.164.211-.247l.009-.01c.016-.02.028-.04.043-.059.04-.052.079-.1.115-.157.02-.029.038-.058.057-.087.031-.048.061-.1.09-.145.007-.014.017-.027.024-.04s.02-.04.03-.059q.034-.062.063-.123c.017-.034.033-.069.048-.1s.035-.082.052-.123c.008-.019.016-.036.023-.055s.011-.033.017-.05c.014-.039.027-.078.039-.118s.022-.072.032-.108.02-.079.029-.119c.005-.022.011-.043.016-.064s0-.029.007-.043c.007-.041.014-.082.019-.123s.01-.071.014-.107.006-.082.009-.123c0-.024,0-.048.005-.072s0-.048,0-.071h0Z" transform="translate(-501.427 -1370.583)" fill="#c6f0f5" stroke="#273855" stroke-linecap="round" stroke-linejoin="round" stroke-width="1"/><path d="M515.373,1369.085a12.712,12.712,0,0,0-11.539,0c-3.177,1.846-3.16,4.838.037,6.684a12.715,12.715,0,0,0,11.537,0C518.585,1373.922,518.568,1370.93,515.373,1369.085Z" transform="translate(-501.44 -1367.701)" fill="#fff" stroke="#273855" stroke-linecap="round" stroke-linejoin="round" stroke-width="1"/></g></g></g></g><g transform="translate(423.563 1419.024)"><g transform="translate(0 0)"><g transform="translate(0.338)"><path d="M481.275,1463.275l-1.849-1.292c0-.051,0-.1,0-.151a26.13,26.13,0,0,0-.153-2.734l1.833-1.04a.427.427,0,0,0,.133-.075.871.871,0,0,0,.155-.874l-.672-2.775a1.787,1.787,0,0,0-1.123-1.309l-1.672-.338a40.547,40.547,0,0,0-1.722-4.534l.949-.536.294-.136a.434.434,0,0,0,.14-.109,1.231,1.231,0,0,0-.074-1.306l-1.455-2.706c-.329-.613-.893-.971-1.259-.8l-1.246.577a43.061,43.061,0,0,0-2.905-4.154l.67-1.352a1.659,1.659,0,0,0-.451-1.62l-1.986-2.168c-.312-.34-.609-.485-.861-.4l-.05.009-.071.04a.123.123,0,0,0-.067.038l-1.489.849a30.565,30.565,0,0,0-2.848-2.285h0v-1.868a1.976,1.976,0,0,0-.891-1.543l-2.174-1.256a.588.588,0,0,0-.677-.024l-2.65,1.515c-.374-.107-.746-.2-1.111-.277l-.661-2.1c-.2-.635-.727-1.172-1.177-1.2l-1.986-.126a.49.49,0,0,0-.182.024.425.425,0,0,0-.148.084l-3.533,2.013-.069-.113c-.366-.592-.929-.883-1.259-.65l-6.658,3.807.174,2.533-4.51,2.732.738,1.595,1.488,4.879-3.53,2.093a.034.034,0,0,0-.01.051l1.741,2.286,3.322,6.3-2.987,1.719a.041.041,0,0,0,0,.069l.982.668,2.18.693,1.911,2.626c-.959-2.146-1.877-4.4-1.841-5.259.069-1.659-.9-8.926-.9-8.926s1.453-3.184,2.284-4.568a8.505,8.505,0,0,1,1.8-2.146s.367-.073.752-.133c.009-.053.016-.109.026-.162l-1.721-1.639a1.985,1.985,0,0,1-.293-.357l8.732,1.313c21.089,7.208,18.943,32.609,18.943,32.609v5.255a12.313,12.313,0,0,1-2.494-.243l-.621.664c.1.615-.205.983-.686.824l-1.073,1.235a1.884,1.884,0,0,1-1.056-1.4l-.285-1.709a36.226,36.226,0,0,1-4.514-.055,63.126,63.126,0,0,1-7.96-2.215s-.6-.663-1.448-1.621l2.89,7.135a.162.162,0,0,0,.237.077l2.681-1.679.554-.8s1.453,1.73,1.592,1.834,3.306,4.856,3.306,4.856l3.31-2.173.133-2.2,3.576,4.284a.119.119,0,0,0,.164.017l6.864-3.968s3.907-2.668,4-2.8l1.087-1.546a1.509,1.509,0,0,0-.326-1.594l-1.47-1.828,3.478-1.989a.551.551,0,0,0,.3-.49l.227-2.365A1.947,1.947,0,0,0,481.275,1463.275Z" transform="translate(-434.321 -1424.878)" fill="#c6f0f5"/><path d="M460.423,1481.766l-.184-.275c-1.165-1.749-3.082-4.6-3.265-4.807-.089-.063-.725-.8-1.331-1.521l-.4.531-2.681,1.68a.5.5,0,0,1-.724-.236l-3.621-8.94,1.291,1.46c.691.782,1.217,1.367,1.387,1.555a61.107,61.107,0,0,0,7.81,2.172,34.345,34.345,0,0,0,4.463.053l.292-.009.331,2a1.722,1.722,0,0,0,.645,1.045l1.049-1.209.211.069a.206.206,0,0,0,.187,0,.528.528,0,0,0,.066-.449l-.027-.162.859-.921.182.036a12.213,12.213,0,0,0,2.1.234v-4.919c.022-.28,1.877-25.255-18.718-32.294l-7.728-1.156,1.478,1.407-.1.573-.235.037c-.267.041-.526.089-.655.114a8.5,8.5,0,0,0-1.661,2.006c-.735,1.226-1.988,3.929-2.227,4.448.119.9.956,7.305.89,8.889-.027.638.582,2.356,1.812,5.108l1.3,2.9-3.718-5.109-2.163-.7-1.135-.771-.011-.221a.373.373,0,0,1,.188-.31l2.708-1.558-3.173-6.014-1.8-2.357.047-.321.148-.1,3.305-1.959-1.412-4.63-.846-1.822,4.592-2.78-.175-2.539,6.84-3.91a.793.793,0,0,1,.619-.105,1.73,1.73,0,0,1,.983.712l3.26-1.857a.545.545,0,0,1,.213-.112.741.741,0,0,1,.3-.039l1.987.126a1.947,1.947,0,0,1,1.473,1.433l.6,1.911c.266.06.536.129.807.2l2.528-1.445a.906.906,0,0,1,1.009.024l2.174,1.255a2.308,2.308,0,0,1,1.057,1.832v1.7a31.233,31.233,0,0,1,2.559,2.049l1.522-.847c.273-.083.7-.07,1.216.5l1.987,2.168a1.947,1.947,0,0,1,.5,1.993l-.577,1.163a43.414,43.414,0,0,1,2.641,3.768l.978-.452c.543-.25,1.268.157,1.692.948l1.455,2.705a1.527,1.527,0,0,1,.029,1.685.738.738,0,0,1-.25.19l-.293.136-.661.374a41.089,41.089,0,0,1,1.554,4.105l1.478.3a2.084,2.084,0,0,1,1.381,1.557l.671,2.776a1.187,1.187,0,0,1-.262,1.206.761.761,0,0,1-.237.135l-1.592.909c.087.887.131,1.737.133,2.531l1.7,1.19a2.287,2.287,0,0,1,.934,1.894l-.228,2.365a.881.881,0,0,1-.5.764l-3.107,1.779,1.225,1.524a1.791,1.791,0,0,1,.339,1.995l-1.087,1.546a41.962,41.962,0,0,1-4.082,2.881l-6.885,3.98a.435.435,0,0,1-.587-.094l-3.037-3.638-.092,1.528Zm4.227-4.525,3.027,3.625,6.718-3.886c1.4-.96,3.738-2.569,3.925-2.739l1.053-1.507a1.254,1.254,0,0,0-.314-1.193l-1.714-2.134,3.817-2.182a.275.275,0,0,0,.134-.233l.228-2.366a1.633,1.633,0,0,0-.652-1.283l-1.991-1.392,0-.26a25.929,25.929,0,0,0-.149-2.764l-.023-.218,2.022-1.148.3.215-.217-.254c.071-.061.117-.257.047-.542l-.671-2.776a1.474,1.474,0,0,0-.864-1.06l-1.866-.377-.058-.189a40.265,40.265,0,0,0-1.709-4.5l-.124-.277,1.531-.834c.126-.135.154-.5-.087-.954l-1.455-2.705c-.269-.5-.676-.729-.825-.658l-1.515.7-.155-.253a42.786,42.786,0,0,0-2.882-4.121l-.131-.166.764-1.541a1.379,1.379,0,0,0-.4-1.246l-1.986-2.168c-.248-.271-.428-.338-.512-.312l-.125.061-1.7.968-.179-.162a30.323,30.323,0,0,0-2.818-2.259l-.141-.1v-2.041a1.655,1.655,0,0,0-.724-1.255l-2.174-1.255c-.134-.076-.247-.094-.3-.049l-2.812,1.61-.134-.037c-.368-.1-.73-.2-1.088-.272l-.193-.039-.719-2.284c-.168-.533-.6-.95-.88-.968l-1.985-.125-.025.021-.118.044-3.814,2.173-.238-.388a1.176,1.176,0,0,0-.654-.565.163.163,0,0,0-.128.012l-6.5,3.721.173,2.527-4.429,2.683.613,1.323,1.581,5.173-3.468,2.056,1.538,2.019,2.9,5.491c-.21-2.663-.825-7.3-.833-7.356l-.012-.1.04-.087c.06-.131,1.471-3.217,2.3-4.6a8.8,8.8,0,0,1,1.879-2.238l.063-.048.078-.016.272-.052-1.38-1.314a2.4,2.4,0,0,1-.342-.416l-.407-.622,9.468,1.423c21.15,7.223,19.248,32.711,19.226,32.967l0,5.558-.331,0a13.3,13.3,0,0,1-2.378-.215l-.389.417a1.047,1.047,0,0,1-.311.9.782.782,0,0,1-.6.179Zm-9.056-3.174.28.334c.675.8,1.438,1.691,1.548,1.79.044.032.169.126,3.19,4.654l2.892-1.9.14-2.318a2.391,2.391,0,0,1-.51-1.094l-.236-1.421a33.08,33.08,0,0,1-4.272-.066,62.229,62.229,0,0,1-8.027-2.23l-.082-.028-.058-.064-.169-.188,2.091,5.163,2.45-1.535Zm-17.928-19.273,2.238.711.272.373a8.257,8.257,0,0,1-.74-2.735c0-.022,0-.044,0-.068l-2.328,1.34Z" transform="translate(-434.108 -1424.673)" fill="#140f0c"/></g><g transform="translate(4.755 10.112)"><path d="M472.309,1480.869v-6.531c-2.227.731-5.031.318-8.081-1.443-7.24-4.181-13.111-14.348-13.111-22.708a10.633,10.633,0,0,1,2.249-7.182l-8.732-1.313a1.979,1.979,0,0,0,.293.357l1.721,1.639c-.01.053-.017.109-.026.162-.385.06-.752.133-.752.133a8.5,8.5,0,0,0-1.8,2.146c-.831,1.384-2.284,4.568-2.284,4.568s.969,7.267.9,8.926,3.391,8.447,3.876,9.762,7.06,8.582,7.06,8.582a63.127,63.127,0,0,0,7.96,2.215,36.2,36.2,0,0,0,4.514.055l.285,1.709a1.885,1.885,0,0,0,1.056,1.4l.865-1.235c.481.159.789-.209.686-.824l.828-.664A12.3,12.3,0,0,0,472.309,1480.869Z" transform="translate(-441.443 -1441.252)" fill="#3EB881"/><path d="M467.357,1483.474l-.236-.078a2.22,2.22,0,0,1-1.281-1.665l-.236-1.421a33.051,33.051,0,0,1-4.272-.066,62.209,62.209,0,0,1-8.027-2.23l-.082-.028-.058-.064c-.677-.75-6.633-7.355-7.125-8.691-.13-.353-.49-1.13-.945-2.114-1.583-3.425-3-6.6-2.951-7.776.067-1.611-.888-8.8-.9-8.869l-.012-.1.04-.087c.06-.131,1.471-3.217,2.3-4.6a8.81,8.81,0,0,1,1.879-2.238l.063-.048.078-.016.272-.052-1.38-1.314a2.4,2.4,0,0,1-.342-.416l-.407-.622,10.076,1.515-.408.46a10.335,10.335,0,0,0-2.164,6.96c0,8.242,5.806,18.3,12.944,22.42,2.874,1.659,5.575,2.148,7.81,1.415l.438-.144v7.322l-.331,0a13.066,13.066,0,0,1-2.408-.22l-.566.453a1.034,1.034,0,0,1-.312.864.813.813,0,0,1-.575.182Zm-1.19-3.848.331,2a1.729,1.729,0,0,0,.622,1.027l.84-1.2.236.078a.2.2,0,0,0,.187,0,.526.526,0,0,0,.066-.449l-.032-.193,1.1-.884.152.03a12.213,12.213,0,0,0,2.1.234v-5.75c-2.326.6-5.052.053-7.914-1.6-7.321-4.227-13.278-14.543-13.278-23a11.444,11.444,0,0,1,1.954-6.938l-7.207-1.084,1.477,1.407-.1.573-.235.037c-.267.041-.526.089-.655.114a8.5,8.5,0,0,0-1.661,2.006c-.735,1.226-1.988,3.929-2.227,4.448.119.9.956,7.3.89,8.889-.046,1.117,1.792,5.093,2.89,7.469.461,1,.826,1.785.965,2.164.336.914,4.309,5.5,6.936,8.41a61.153,61.153,0,0,0,7.811,2.172,34.339,34.339,0,0,0,4.463.053Z" transform="translate(-441.232 -1440.982)" fill="#140f0c"/></g><g transform="translate(0 3.807)"><path d="M474.4,1469.415l-1.849-1.292c0-.051,0-.1,0-.151a27.454,27.454,0,0,0-.325-4.106l1.721.348c.467.095.724-.338.572-.966l-.671-2.775a1.786,1.786,0,0,0-1.123-1.309l-1.672-.338a40.568,40.568,0,0,0-1.758-4.615l1.278-.591c.366-.169.4-.8.066-1.415l-1.455-2.706c-.329-.613-.892-.971-1.258-.8l-1.246.577a42.937,42.937,0,0,0-2.905-4.154l.671-1.352a1.658,1.658,0,0,0-.451-1.619l-1.987-2.168c-.449-.491-.976-.562-1.176-.158l-.661,1.333a31.34,31.34,0,0,0-3.548-2.927v-1.868a1.968,1.968,0,0,0-.891-1.543l-2.174-1.256c-.492-.284-.891-.054-.891.515v1.868a16.812,16.812,0,0,0-3.548-1.169l-.661-2.1c-.2-.635-.727-1.172-1.176-1.2l-1.987-.126c-.45-.029-.652.463-.451,1.1l.671,2.127a9.076,9.076,0,0,0-2.905.8l-1.246-2.014c-.366-.592-.929-.883-1.258-.651l-1.455,1.026c-.329.233-.3.9.066,1.491l1.278,2.066a10.357,10.357,0,0,0-1.758,2.586l-1.672-1.592c-.468-.446-.97-.44-1.123.012l-.672,2a1.787,1.787,0,0,0,.572,1.627l1.721,1.639a20.627,20.627,0,0,0-.325,3.73c0,.051,0,.1,0,.155l-1.849-.843c-.489-.223-.844.078-.793.673l.228,2.628a1.947,1.947,0,0,0,.979,1.481l1.9.867a35.221,35.221,0,0,0,1.122,4.475l-1.693.151c-.426.038-.572.583-.326,1.218l1.087,2.8c.246.634.791,1.118,1.217,1.079l1.732-.154a44.026,44.026,0,0,0,2.344,4.3l-1.2,1.211c-.29.293-.2.987.2,1.551l1.759,2.491c.4.563.955.784,1.244.49l1.215-1.229a37.855,37.855,0,0,0,3.148,3.415l-.433,2.1a1.885,1.885,0,0,0,.686,1.616l2.127,1.75c.481.4.954.314,1.057-.182l.436-2.117c.565.388,1.136.753,1.715,1.087s1.15.629,1.715.893l.436,2.621a1.884,1.884,0,0,0,1.057,1.4l2.127.706c.481.159.789-.21.686-.825l-.433-2.6a11.922,11.922,0,0,0,3.148.221l1.215,2.633c.29.627.846,1.05,1.244.946l1.759-.46c.4-.1.487-.7.2-1.323l-1.2-2.594a8.576,8.576,0,0,0,2.343-1.592l1.733,2.156c.427.53.972.676,1.217.326l1.087-1.546a1.51,1.51,0,0,0-.326-1.594l-1.693-2.106a13.781,13.781,0,0,0,1.122-3.179l1.9,1.327c.489.342.928.185.979-.35l.228-2.365A1.947,1.947,0,0,0,474.4,1469.415Zm-19.752,3.358c-7.241-4.181-13.111-14.348-13.111-22.709s5.87-11.75,13.111-7.57,13.111,14.348,13.111,22.708S461.891,1476.954,454.65,1472.773Z" transform="translate(-433.767 -1431.018)" fill="#fff"/><path d="M465.516,1484.448a1.786,1.786,0,0,1-1.422-1.154l-1.12-2.427a12.194,12.194,0,0,1-2.534-.155l.355,2.138a1.12,1.12,0,0,1-.29,1.065.844.844,0,0,1-.83.13l-2.127-.706a2.216,2.216,0,0,1-1.281-1.664l-.407-2.448c-.536-.255-1.068-.535-1.582-.832-.43-.247-.872-.523-1.322-.82l-.335,1.629a.827.827,0,0,1-.528.654,1.115,1.115,0,0,1-1.067-.281l-2.127-1.749a2.218,2.218,0,0,1-.8-1.941l.4-1.925a38.08,38.08,0,0,1-2.808-3.031l-.955.967a.787.787,0,0,1-.634.225,1.651,1.651,0,0,1-1.12-.758l-1.758-2.492a1.624,1.624,0,0,1-.162-1.977l1.013-1.025c-.774-1.268-1.487-2.576-2.123-3.9l-1.5.135a1.813,1.813,0,0,1-1.558-1.291l-1.086-2.8a1.478,1.478,0,0,1,.011-1.3.768.768,0,0,1,.6-.368l1.28-.114a35.583,35.583,0,0,1-.977-3.948l-1.742-.795a2.278,2.278,0,0,1-1.173-1.755l-.227-2.628a1.028,1.028,0,0,1,.364-.968.891.891,0,0,1,.9-.037l1.376.628a20.963,20.963,0,0,1,.3-3.248l-1.592-1.515a2.116,2.116,0,0,1-.658-1.975l.672-2a.791.791,0,0,1,.564-.546,1.223,1.223,0,0,1,1.1.4l1.348,1.284a10.611,10.611,0,0,1,1.435-2.075l-1.145-1.853c-.471-.763-.46-1.6.025-1.939l1.455-1.026a.82.82,0,0,1,.645-.121,1.818,1.818,0,0,1,1.089.869l1.092,1.766a9.4,9.4,0,0,1,2.337-.655l-.551-1.746a1.342,1.342,0,0,1,.114-1.236.752.752,0,0,1,.677-.3l1.985.126a1.946,1.946,0,0,1,1.473,1.433l.6,1.91a16.963,16.963,0,0,1,2.954.946v-1.359a.87.87,0,0,1,1.391-.8l2.174,1.255a2.3,2.3,0,0,1,1.058,1.831v1.7a31.359,31.359,0,0,1,3.114,2.549l.461-.931a.776.776,0,0,1,.6-.439,1.332,1.332,0,0,1,1.127.52l1.986,2.167a1.948,1.948,0,0,1,.5,1.992l-.577,1.163a43.419,43.419,0,0,1,2.641,3.768l.978-.453c.539-.247,1.268.159,1.692.949l1.455,2.705a1.819,1.819,0,0,1,.208,1.376.813.813,0,0,1-.428.5l-.98.453a41,41,0,0,1,1.579,4.163l1.479.3a2.117,2.117,0,0,1,1.381,1.557l.671,2.776a1.224,1.224,0,0,1-.206,1.155.8.8,0,0,1-.756.216l-1.257-.254a27.451,27.451,0,0,1,.261,3.664l1.7,1.189a2.286,2.286,0,0,1,.934,1.894l-.228,2.366a.892.892,0,0,1-.482.761,1.028,1.028,0,0,1-1.019-.169l-1.5-1.049a13.985,13.985,0,0,1-.938,2.584l1.559,1.939a1.792,1.792,0,0,1,.34,2l-1.087,1.546a.765.765,0,0,1-.616.332,1.465,1.465,0,0,1-1.133-.64l-1.51-1.879a8.963,8.963,0,0,1-1.866,1.264l1.06,2.3a1.655,1.655,0,0,1,.1,1.35.785.785,0,0,1-.512.436l-1.76.459A.782.782,0,0,1,465.516,1484.448Zm-2.128-4.276,1.312,2.841c.248.538.674.809.856.763l1.76-.459c.015,0,.047-.013.078-.076a1.037,1.037,0,0,0-.1-.785l-1.338-2.9.3-.14a8.27,8.27,0,0,0,2.252-1.53l.262-.25,1.96,2.439a.964.964,0,0,0,.591.392.1.1,0,0,0,.093-.049l1.087-1.546a1.25,1.25,0,0,0-.313-1.193l-1.828-2.274.1-.192a13.484,13.484,0,0,0,1.095-3.1l.109-.484,2.307,1.612c.175.123.3.136.358.11s.087-.1.1-.219l.227-2.366a1.632,1.632,0,0,0-.651-1.283l-1.992-1.391,0-.26a27.255,27.255,0,0,0-.319-4.121l-.072-.471,2.188.442c.1.02.131-.012.143-.025a.634.634,0,0,0,.038-.535l-.671-2.776a1.475,1.475,0,0,0-.864-1.06l-1.866-.377-.059-.189a40.42,40.42,0,0,0-1.743-4.577l-.135-.3,1.577-.73a.164.164,0,0,0,.076-.1,1.174,1.174,0,0,0-.163-.849l-1.455-2.7c-.268-.5-.675-.732-.825-.659l-1.514.7-.155-.253a42.734,42.734,0,0,0-2.882-4.12l-.131-.166.764-1.542a1.38,1.38,0,0,0-.4-1.245L461.563,1440a.765.765,0,0,0-.541-.31c-.029,0-.06.013-.091.076l-.862,1.738-.328-.312a30.9,30.9,0,0,0-3.509-2.9l-.141-.1v-2.042a1.651,1.651,0,0,0-.724-1.254l-2.174-1.256c-.149-.085-.25-.089-.3-.062s-.094.115-.094.288v2.384l-.47-.211a16.464,16.464,0,0,0-3.477-1.146l-.193-.039-.72-2.284c-.168-.533-.6-.951-.879-.968l-1.986-.125a.1.1,0,0,0-.11.041.755.755,0,0,0,0,.623l.794,2.515-.4.044a8.749,8.749,0,0,0-2.8.769l-.269.127-1.4-2.269a1.177,1.177,0,0,0-.654-.565.163.163,0,0,0-.128.012l-1.456,1.026c-.135.095-.141.56.157,1.044l1.412,2.284-.175.186a10.009,10.009,0,0,0-1.7,2.5l-.2.411-2-1.908c-.2-.2-.391-.258-.484-.234-.016,0-.06.015-.092.112l-.672,2a1.478,1.478,0,0,0,.486,1.28l1.852,1.763-.032.178a20.29,20.29,0,0,0-.32,3.669l.01.677-2.328-1.062c-.1-.047-.193-.058-.238-.024s-.1.152-.084.365l.228,2.628a1.629,1.629,0,0,0,.785,1.205l2.059.939.032.172a34.872,34.872,0,0,0,1.112,4.432l.126.4-2.108.188a.1.1,0,0,0-.088.056.888.888,0,0,0,.043.708l1.086,2.8c.218.559.678.9.877.867l1.965-.175.1.209a43.71,43.71,0,0,0,2.324,4.265l.138.223-1.381,1.4c-.133.135-.109.64.233,1.125l1.758,2.491a1.038,1.038,0,0,0,.631.478.118.118,0,0,0,.105-.029l1.475-1.494.234.287a37.814,37.814,0,0,0,3.122,3.385l.134.127-.472,2.285a1.577,1.577,0,0,0,.572,1.292l2.127,1.75a.546.546,0,0,0,.422.167c.056-.02.084-.1.1-.161l.536-2.608.414.284c.578.4,1.147.758,1.693,1.073s1.117.613,1.69.88l.159.074.464,2.794a1.572,1.572,0,0,0,.833,1.14l2.126.706a.207.207,0,0,0,.187,0,.526.526,0,0,0,.066-.449l-.512-3.081.473.094a11.628,11.628,0,0,0,3.06.216ZM460.3,1474.7a12.241,12.241,0,0,1-6.023-1.841h0c-7.321-4.227-13.278-14.543-13.278-23,0-4.168,1.423-7.285,4.007-8.777s5.994-1.166,9.6.919c7.321,4.227,13.278,14.543,13.278,23,0,4.168-1.423,7.284-4.007,8.777A7.078,7.078,0,0,1,460.3,1474.7Zm-5.689-2.417c3.395,1.96,6.569,2.285,8.937.918s3.674-4.279,3.674-8.2c0-8.241-5.807-18.3-12.945-22.42-3.4-1.96-6.569-2.285-8.937-.918s-3.674,4.279-3.674,8.2c0,8.241,5.806,18.3,12.944,22.42Z" transform="translate(-433.563 -1430.813)" fill="#140f0c"/></g><g transform="translate(11.102 2.166)"><rect width="3.525" height="0.668" transform="matrix(0.868, -0.496, 0.496, 0.868, 0, 1.747)" fill="#140f0c"/></g><g transform="translate(15.192 3.468)"><rect width="7.67" height="0.666" transform="translate(0 3.808) rotate(-29.773)" fill="#140f0c"/></g><g transform="translate(19.084 3.744)"><rect width="4.47" height="0.667" transform="matrix(0.867, -0.498, 0.498, 0.867, 0, 2.226)" fill="#140f0c"/></g><g transform="translate(22.695 6.921)"><rect width="7.67" height="0.666" transform="matrix(0.868, -0.497, 0.497, 0.868, 0, 3.808)" fill="#140f0c"/></g><g transform="translate(27.154 9.206)"><rect width="5.816" height="0.666" transform="translate(0 2.888) rotate(-29.773)" fill="#140f0c"/></g><g transform="translate(29.848 13.812)"><rect width="7.669" height="0.666" transform="translate(0 3.808) rotate(-29.773)" fill="#140f0c"/></g><g transform="translate(33.999 17.389)"><rect width="7.669" height="0.666" transform="matrix(0.868, -0.497, 0.497, 0.868, 0, 3.809)" fill="#140f0c"/></g><g transform="translate(36.922 22.982)"><rect width="5.84" height="0.667" transform="matrix(0.881, -0.473, 0.473, 0.881, 0, 2.761)" fill="#140f0c"/></g><g transform="translate(37.126 27.519)"><rect width="7.669" height="0.666" transform="matrix(0.868, -0.497, 0.497, 0.868, 0, 3.809)" fill="#140f0c"/></g><g transform="translate(40.568 33.927)"><rect width="5.209" height="0.668" transform="translate(0 2.511) rotate(-28.813)" fill="#140f0c"/></g><g transform="translate(38.62 36.815)"><rect width="7.669" height="0.666" transform="translate(0 3.808) rotate(-29.773)" fill="#140f0c"/></g><g transform="translate(40.971 44.536)"><rect width="3.349" height="0.667" transform="matrix(0.881, -0.473, 0.473, 0.881, 0, 1.583)" fill="#140f0c"/></g><g transform="translate(37.055 46.388)"><rect width="3.906" height="0.667" transform="translate(0 1.67) rotate(-25.312)" fill="#140f0c"/></g></g></g><g transform="translate(443.913 1404.661)"><g transform="translate(0.195)"><path d="M495.772,1425.323l-1.13-.789c0-.031,0-.061,0-.092a15.953,15.953,0,0,0-.094-1.671l1.12-.636a.257.257,0,0,0,.081-.046.533.533,0,0,0,.094-.534l-.41-1.7a1.092,1.092,0,0,0-.686-.8l-1.021-.206a24.865,24.865,0,0,0-1.053-2.771l.58-.327.18-.083a.254.254,0,0,0,.085-.067.75.75,0,0,0-.045-.8l-.889-1.654c-.2-.374-.546-.594-.769-.49l-.761.352a26.156,26.156,0,0,0-1.776-2.538l.41-.827a1.011,1.011,0,0,0-.276-.99l-1.213-1.325c-.19-.208-.373-.3-.526-.247l-.03.005-.043.025a.073.073,0,0,0-.041.024l-.91.518a18.74,18.74,0,0,0-1.741-1.4h0v-1.142a1.209,1.209,0,0,0-.544-.943l-1.329-.767a.36.36,0,0,0-.414-.015l-1.619.926c-.229-.065-.456-.123-.679-.169l-.4-1.281c-.122-.388-.445-.716-.719-.733l-1.214-.077a.3.3,0,0,0-.11.014.254.254,0,0,0-.091.052l-2.159,1.23-.043-.069c-.223-.361-.567-.539-.769-.4l-4.069,2.327.107,1.548-2.757,1.669.451.975.91,2.982-2.158,1.279a.022.022,0,0,0-.006.031l1.064,1.4,2.031,3.85-1.825,1.05a.025.025,0,0,0,0,.042l.6.408,1.333.423,1.167,1.605a11.812,11.812,0,0,1-1.125-3.214c.042-1.014-.55-5.455-.55-5.455s.888-1.946,1.4-2.792a5.211,5.211,0,0,1,1.1-1.311s.224-.045.459-.081c.006-.033.01-.067.016-.1l-1.052-1a1.212,1.212,0,0,1-.179-.218l5.337.8c12.889,4.405,11.577,19.93,11.577,19.93v3.211a7.5,7.5,0,0,1-1.524-.148l-.379.406c.062.376-.125.6-.42.5l-.655.754a1.152,1.152,0,0,1-.646-.857l-.174-1.045a22.124,22.124,0,0,1-2.758-.034,38.532,38.532,0,0,1-4.865-1.354s-.366-.4-.885-.991l1.766,4.36a.1.1,0,0,0,.145.047l1.639-1.027.339-.486s.888,1.057.973,1.121,2.021,2.968,2.021,2.968l2.022-1.328.081-1.344,2.186,2.618a.072.072,0,0,0,.1.01L491.8,1434s2.388-1.63,2.443-1.709l.665-.945a.922.922,0,0,0-.2-.974l-.9-1.117,2.125-1.216a.336.336,0,0,0,.184-.3l.139-1.446A1.19,1.19,0,0,0,495.772,1425.323Z" transform="translate(-466.923 -1401.718)" fill="#c6f0f5"/><path d="M482.895,1436.733l-.189-.285c-.7-1.051-1.859-2.774-1.986-2.924a6.831,6.831,0,0,1-.7-.791l-.182.213-1.639,1.026a.444.444,0,0,1-.645-.206l-2.52-6.224,1.33,1.5c.392.445.7.785.822.923a36.8,36.8,0,0,0,4.711,1.309,21.183,21.183,0,0,0,2.706.032l.3-.009.223,1.341a.935.935,0,0,0,.241.464l.611-.7.2.066a.7.7,0,0,0-.009-.115l-.028-.167.626-.67.187.037a7.369,7.369,0,0,0,1.113.136v-2.861c.014-.181,1.135-15.339-11.345-19.6l-4.261-.636.639.609-.079.423-.257.136c-.139.022-.274.046-.358.062a5.109,5.109,0,0,0-.958,1.167c-.431.718-1.157,2.279-1.337,2.668.089.68.58,4.459.54,5.417a10.353,10.353,0,0,0,1.1,3.059l1.336,2.993-3.03-4.165-1.314-.432-.76-.518v-.216l.011-.192.182-.111,1.53-.881-1.876-3.556-1.128-1.474.06-.33,2.064-1.221-.831-2.724-.563-1.21,2.841-1.721-.108-1.554,4.257-2.434a.62.62,0,0,1,.476-.079,1.136,1.136,0,0,1,.608.391l1.889-1.076a.405.405,0,0,1,.157-.081.7.7,0,0,1,.237-.03l1.212.077a1.334,1.334,0,0,1,1.025.973l.345,1.091c.121.028.242.059.365.093l1.494-.854a.68.68,0,0,1,.756.015l1.329.768a1.539,1.539,0,0,1,.717,1.241v.965c.476.344.96.73,1.442,1.153l.89-.484c.184-.062.5-.052.869.347l1.213,1.325a1.329,1.329,0,0,1,.33,1.375l-.313.631c.532.684,1.037,1.4,1.5,2.141l.486-.225c.395-.184.92.09,1.216.639l.888,1.654a1.054,1.054,0,0,1,0,1.189.607.607,0,0,1-.2.15l-.463.245c.338.777.633,1.559.88,2.328l.823.166a1.42,1.42,0,0,1,.952,1.056l.411,1.7a.861.861,0,0,1-.205.877.618.618,0,0,1-.19.108l-.872.5c.046.485.07.955.073,1.4l.981.686a1.523,1.523,0,0,1,.631,1.285l-.139,1.446a.677.677,0,0,1-.388.582l-1.743,1,.645.8a1.236,1.236,0,0,1,.213,1.388l-.665.945a20.761,20.761,0,0,1-2.53,1.8l-4.217,2.438a.4.4,0,0,1-.537-.09l-1.629-1.951-.039.652Zm2.806-2.958,1.7,2.035,4-2.318c.834-.571,2.241-1.541,2.376-1.658l.621-.9a.7.7,0,0,0-.186-.561l-1.151-1.432,2.476-1.416.151-1.479a.847.847,0,0,0-.339-.655l-1.277-.893,0-.271a15.615,15.615,0,0,0-.092-1.634l-.024-.224,1.316-.747c.025-.01.041-.078.011-.2l-.411-1.7a.786.786,0,0,0-.419-.544l-1.221-.247-.061-.195a24.431,24.431,0,0,0-1.039-2.732l-.128-.286,1.057-.577a1.142,1.142,0,0,0-.117-.389l-.888-1.655a.625.625,0,0,0-.345-.334l-1.016.474-.16-.26a26.063,26.063,0,0,0-1.752-2.5l-.136-.171.507-1.021a.743.743,0,0,0-.221-.6l-1.214-1.325a.508.508,0,0,0-.19-.15l-1.151.665-.185-.166a18.671,18.671,0,0,0-1.709-1.371l-.146-.1v-1.321a.881.881,0,0,0-.373-.645l-1.329-.767a.177.177,0,0,0-.068-.027l-1.749,1.011-.139-.04c-.22-.062-.438-.12-.654-.163l-.2-.04-.464-1.474a.751.751,0,0,0-.412-.494l-1.214-.076-2.458,1.416-.216-.352a.576.576,0,0,0-.316-.283l-3.872,2.223.106,1.542-2.672,1.619.322.7,1,3.285-2.078,1.231.844,1.109,1.461,2.762c-.158-1.623-.443-3.767-.448-3.8l-.013-.1.042-.091c.037-.08.9-1.974,1.414-2.826a5.53,5.53,0,0,1,1.181-1.4l.053-.041-.653-.622a1.524,1.524,0,0,1-.231-.281l-.412-.639,6.089.916c13.052,4.455,11.883,20.141,11.869,20.3v3.524l-.341,0a7.965,7.965,0,0,1-1.4-.12l-.146.157a.754.754,0,0,1-.241.6.612.612,0,0,1-.4.146Zm-5.728-2.173.289.345c.4.475.857,1.01.932,1.081a30.345,30.345,0,0,1,1.894,2.755l1.593-1.046.078-1.292a1.583,1.583,0,0,1-.307-.692l-.125-.748a19.48,19.48,0,0,1-2.51-.045,35.741,35.741,0,0,1-4.783-1.318l1.05,2.594,1.333-.834Zm-10.885-11.675,1.167.369a5.11,5.11,0,0,1-.279-1.054l-1.026.59Z" transform="translate(-466.7 -1401.507)" fill="#140f0c"/></g><g transform="translate(2.901 6.134)"><path d="M490.292,1436.076v-3.991a6.142,6.142,0,0,1-4.939-.882,17.709,17.709,0,0,1-8.013-13.878,6.5,6.5,0,0,1,1.375-4.389l-5.337-.8a1.209,1.209,0,0,0,.179.218l1.052,1c-.006.033-.01.067-.016.1-.235.036-.459.081-.459.081a5.214,5.214,0,0,0-1.1,1.311c-.507.846-1.4,2.792-1.4,2.792s.592,4.442.55,5.456,2.073,5.162,2.368,5.966,4.315,5.245,4.315,5.245a38.527,38.527,0,0,0,4.865,1.354,22.1,22.1,0,0,0,2.758.034l.174,1.045a1.152,1.152,0,0,0,.646.857l.528-.755c.294.1.482-.128.42-.5l.507-.406A7.518,7.518,0,0,0,490.292,1436.076Z" transform="translate(-471.282 -1411.679)" fill="#3EB881"/><path d="M487.231,1437.721l-.243-.081a1.482,1.482,0,0,1-.877-1.127l-.125-.749a19.486,19.486,0,0,1-2.51-.045,38.155,38.155,0,0,1-4.934-1.369l-.085-.029-.06-.066c-.678-.75-4.078-4.532-4.382-5.357-.077-.209-.306-.7-.572-1.277-1.013-2.192-1.85-4.068-1.819-4.822.041-.972-.541-5.351-.547-5.4l-.013-.1.042-.09c.037-.08.9-1.974,1.414-2.826a5.531,5.531,0,0,1,1.181-1.4l.053-.041-.653-.622a1.53,1.53,0,0,1-.231-.281l-.412-.639,6.716,1.01-.42.474a6.183,6.183,0,0,0-1.288,4.161,17.356,17.356,0,0,0,7.841,13.581,5.8,5.8,0,0,0,4.659.854l.451-.148v4.807l-.341,0a7.974,7.974,0,0,1-1.435-.125l-.242.194a.742.742,0,0,1-.241.568.609.609,0,0,1-.371.145Zm-.665-2.662.223,1.341a.941.941,0,0,0,.218.44l.482-.689.224.075a.693.693,0,0,0-.009-.115l-.033-.2.789-.632.157.032a7.369,7.369,0,0,0,1.113.136v-3.192a6.772,6.772,0,0,1-4.767-1.034c-4.513-2.605-8.185-8.965-8.185-14.176a7.313,7.313,0,0,1,1.087-4.137l-3.741-.562.637.608-.079.423-.257.136c-.139.022-.274.046-.358.062a5.11,5.11,0,0,0-.958,1.167c-.431.718-1.157,2.279-1.337,2.668.089.68.58,4.458.54,5.417-.027.65,1.133,3.158,1.756,4.5.282.609.505,1.092.591,1.328a48.038,48.038,0,0,0,4.188,5.068,36.847,36.847,0,0,0,4.711,1.309,21.189,21.189,0,0,0,2.706.031Z" transform="translate(-471.065 -1411.401)" fill="#140f0c"/></g><g transform="translate(0 2.325)"><path d="M491.571,1429.076l-1.13-.79c0-.031,0-.061,0-.092a16.766,16.766,0,0,0-.2-2.509l1.052.213c.286.058.443-.207.35-.591l-.41-1.7a1.093,1.093,0,0,0-.686-.8l-1.021-.206a24.836,24.836,0,0,0-1.074-2.82l.781-.362c.223-.1.242-.49.04-.864l-.889-1.654c-.2-.374-.546-.594-.769-.49l-.762.352a26.3,26.3,0,0,0-1.775-2.538l.41-.827a1.014,1.014,0,0,0-.276-.99L484,1411.086c-.275-.3-.6-.343-.719-.1l-.4.815a19.161,19.161,0,0,0-2.168-1.789v-1.141a1.2,1.2,0,0,0-.544-.943l-1.329-.768c-.3-.174-.544-.033-.544.314v1.142a10.267,10.267,0,0,0-2.168-.714l-.4-1.281c-.122-.388-.444-.717-.719-.734l-1.213-.077c-.275-.017-.4.283-.277.671l.41,1.3a5.559,5.559,0,0,0-1.775.489l-.762-1.231c-.223-.361-.567-.54-.769-.4l-.889.627c-.2.142-.183.55.04.911l.781,1.264a6.314,6.314,0,0,0-1.075,1.58l-1.021-.973c-.286-.272-.593-.269-.686.007l-.41,1.222a1.091,1.091,0,0,0,.35.995l1.052,1a12.592,12.592,0,0,0-.2,2.279c0,.031,0,.064,0,.095l-1.13-.515c-.3-.136-.516.048-.484.411l.139,1.606a1.19,1.19,0,0,0,.6.905l1.161.53a21.676,21.676,0,0,0,.686,2.735l-1.035.093c-.26.023-.35.356-.2.743l.664,1.713c.151.387.484.683.744.66l1.059-.095a26.859,26.859,0,0,0,1.432,2.626l-.732.741c-.177.178-.123.6.12.947l1.075,1.523c.244.345.584.479.761.3l.743-.751a23.2,23.2,0,0,0,1.924,2.087l-.265,1.286a1.153,1.153,0,0,0,.42.988l1.3,1.07c.294.242.583.191.646-.112l.266-1.294c.345.237.7.46,1.048.664s.7.385,1.048.546l.267,1.6a1.152,1.152,0,0,0,.645.858l1.3.432c.294.1.482-.128.419-.5l-.265-1.592a7.247,7.247,0,0,0,1.924.135l.742,1.609c.177.383.518.642.761.578l1.075-.281c.243-.063.3-.425.12-.808l-.732-1.585a5.234,5.234,0,0,0,1.432-.973l1.059,1.318c.26.324.593.414.744.2l.664-.946a.922.922,0,0,0-.2-.974l-1.035-1.287a8.415,8.415,0,0,0,.686-1.943l1.161.812c.3.209.567.113.6-.214l.139-1.446A1.192,1.192,0,0,0,491.571,1429.076Zm-12.072,2.052a17.712,17.712,0,0,1-8.013-13.878c0-5.11,3.588-7.182,8.013-4.627a17.711,17.711,0,0,1,8.013,13.879C487.512,1431.612,483.925,1433.683,479.5,1431.128Z" transform="translate(-466.596 -1405.469)" fill="#fff"/><path d="M486.058,1438.317a1.232,1.232,0,0,1-1-.786l-.645-1.4a7.519,7.519,0,0,1-1.292-.071l.186,1.117a.819.819,0,0,1-.225.781.652.652,0,0,1-.643.105l-1.3-.432a1.483,1.483,0,0,1-.876-1.127l-.237-1.425c-.308-.149-.614-.311-.911-.482-.209-.122-.423-.252-.642-.394l-.164.794a.649.649,0,0,1-.413.5.818.818,0,0,1-.789-.2l-1.3-1.069a1.482,1.482,0,0,1-.537-1.323l.226-1.1c-.541-.527-1.069-1.095-1.572-1.691l-.476.482a.6.6,0,0,1-.5.179,1.131,1.131,0,0,1-.787-.523l-1.075-1.522a1.127,1.127,0,0,1-.084-1.388l.543-.549c-.437-.721-.841-1.463-1.206-2.212l-.821.073a1.213,1.213,0,0,1-1.095-.878l-.665-1.712a1.041,1.041,0,0,1,.019-.92.606.606,0,0,1,.471-.291l.611-.055a21.7,21.7,0,0,1-.538-2.192l-1-.455a1.525,1.525,0,0,1-.8-1.189l-.139-1.606a.766.766,0,0,1,.281-.718.68.68,0,0,1,.689-.036l.649.3a12.917,12.917,0,0,1,.165-1.72l-.918-.875a1.42,1.42,0,0,1-.439-1.353l.411-1.223a.626.626,0,0,1,.443-.425.878.878,0,0,1,.805.278l.692.659a6.59,6.59,0,0,1,.739-1.055l-.645-1.044a1.022,1.022,0,0,1,.054-1.373l.888-.627a.638.638,0,0,1,.5-.1,1.251,1.251,0,0,1,.755.594l.6.978a5.871,5.871,0,0,1,1.19-.337l-.288-.913a.956.956,0,0,1,.093-.884.619.619,0,0,1,.533-.234l1.214.077a1.333,1.333,0,0,1,1.025.974l.345,1.09a10.49,10.49,0,0,1,1.556.489v-.623a.67.67,0,0,1,1.061-.612l1.329.767a1.54,1.54,0,0,1,.716,1.241v.965a19.406,19.406,0,0,1,1.722,1.4l.2-.4a.617.617,0,0,1,.469-.344.944.944,0,0,1,.812.361l1.215,1.325a1.333,1.333,0,0,1,.33,1.374l-.314.633c.532.683,1.036,1.4,1.5,2.141l.485-.225c.4-.182.922.091,1.216.64l.889,1.653a1.249,1.249,0,0,1,.137.952.643.643,0,0,1-.335.388l-.474.219a25.154,25.154,0,0,1,.89,2.354l.823.166a1.42,1.42,0,0,1,.952,1.056l.41,1.7a.88.88,0,0,1-.161.835.632.632,0,0,1-.59.173l-.577-.117a16.789,16.789,0,0,1,.135,1.99l.981.686a1.523,1.523,0,0,1,.631,1.286l-.139,1.446a.68.68,0,0,1-.376.579.766.766,0,0,1-.762-.117l-.753-.526a8.591,8.591,0,0,1-.492,1.331l.9,1.117a1.235,1.235,0,0,1,.213,1.388l-.664.945a.605.605,0,0,1-.487.262.976.976,0,0,1-.807-.443l-.833-1.035a5.549,5.549,0,0,1-.938.634l.592,1.282a1.134,1.134,0,0,1,.058.944.615.615,0,0,1-.4.342l-1.075.281A.623.623,0,0,1,486.058,1438.317Zm-1.218-2.9.842,1.825a.67.67,0,0,0,.371.387l1.065-.279h0c-.028,0-.014-.138-.1-.332l-.877-1.9.314-.144a4.9,4.9,0,0,0,1.338-.909l.27-.258,1.294,1.609a.472.472,0,0,0,.249.187l.61-.915a.7.7,0,0,0-.186-.561l-1.173-1.46.1-.2a8.143,8.143,0,0,0,.658-1.864l.113-.5,1.58,1.1a.242.242,0,0,0,.1.049l.095-1.459a.848.848,0,0,0-.339-.656l-1.277-.893,0-.271a16.531,16.531,0,0,0-.195-2.458l-.074-.486,1.511.306c-.011-.02-.009-.079-.03-.167l-.411-1.7a.787.787,0,0,0-.42-.543l-1.221-.247-.06-.195a24.452,24.452,0,0,0-1.06-2.782l-.14-.31,1.09-.5a1.177,1.177,0,0,0-.118-.389l-.889-1.654a.626.626,0,0,0-.345-.335l-1.015.474-.159-.26a26.156,26.156,0,0,0-1.753-2.505l-.136-.171.507-1.021a.748.748,0,0,0-.221-.6l-1.215-1.325a.4.4,0,0,0-.211-.145l-.557,1.2-.338-.322a18.809,18.809,0,0,0-2.129-1.757l-.146-.1v-1.321a.864.864,0,0,0-.372-.645l-1.329-.767-.029-.015c0,.009,0,.019,0,.031v1.673l-.485-.218a10,10,0,0,0-2.094-.69l-.2-.04-.466-1.475a.746.746,0,0,0-.412-.493l-1.195-.076c.021.017.014.1.054.223l.536,1.7-.417.045a5.212,5.212,0,0,0-1.666.457l-.278.131-.923-1.492a.58.58,0,0,0-.316-.284l-.852.613a.773.773,0,0,0,.135.449l.92,1.488-.181.192a5.968,5.968,0,0,0-1.015,1.494l-.206.424-1.363-1.3a.342.342,0,0,0-.175-.107l-.359,1.2a.792.792,0,0,0,.261.635l1.187,1.13-.034.183a12.281,12.281,0,0,0-.193,2.217v.535l-.485-.128-1.13-.516c0-.02-.007-.031,0,.07l.139,1.606a.851.851,0,0,0,.4.622l1.325.6.032.177a21.285,21.285,0,0,0,.675,2.692l.13.409-1.461.13h0c.035,0,.025.114.089.277l.664,1.712a.7.7,0,0,0,.394.441l1.3-.116.1.216a26.421,26.421,0,0,0,1.414,2.593l.143.231-.923.932a.715.715,0,0,0,.157.508l1.075,1.523a.527.527,0,0,0,.283.234l.964-1,.242.3a22.748,22.748,0,0,0,1.9,2.056l.138.131-.3,1.473a.831.831,0,0,0,.3.653l1.3,1.07a.281.281,0,0,0,.138.076l.324-1.792.427.294c.35.241.7.459,1.025.65s.676.371,1.022.532l.164.077.3,1.781a.827.827,0,0,0,.414.587l1.281.425a.691.691,0,0,0-.009-.115l-.347-2.082.487.1a6.948,6.948,0,0,0,1.835.129Zm-1.972-3.059a7.625,7.625,0,0,1-3.752-1.144h0c-4.512-2.606-8.185-8.965-8.185-14.176,0-2.6.895-4.548,2.52-5.486s3.758-.738,6.009.562c4.513,2.605,8.185,8.965,8.185,14.177,0,2.6-.895,4.547-2.518,5.485A4.46,4.46,0,0,1,482.868,1432.359Zm-3.408-1.739c2.03,1.171,3.92,1.373,5.322.561s2.175-2.545,2.175-4.889a17.358,17.358,0,0,0-7.841-13.581c-2.028-1.171-3.918-1.372-5.322-.561s-2.175,2.547-2.175,4.89a17.358,17.358,0,0,0,7.841,13.581Z" transform="translate(-466.385 -1405.258)" fill="#140f0c"/></g><g transform="translate(5.361 3.805)"><rect width="1.908" height="0.688" transform="translate(0 1.036) rotate(-32.881)" fill="#140f0c"/></g><g transform="translate(6.802 1.342)"><rect width="2.22" height="0.688" transform="translate(0 1.11) rotate(-29.993)" fill="#140f0c"/></g><g transform="translate(9.356 2.137)"><rect width="4.687" height="0.688" transform="translate(0 2.327) rotate(-29.761)" fill="#140f0c"/></g><g transform="translate(11.754 2.307)"><rect width="2.709" height="0.688" transform="matrix(0.867, -0.498, 0.498, 0.867, 0, 1.349)" fill="#140f0c"/></g><g transform="translate(13.941 4.247)"><rect width="4.688" height="0.687" transform="translate(0 2.328) rotate(-29.775)" fill="#140f0c"/></g><g transform="translate(16.737 5.645)"><rect width="3.483" height="0.688" transform="translate(0 1.748) rotate(-30.119)" fill="#140f0c"/></g><g transform="translate(18.312 8.458)"><rect width="4.687" height="0.687" transform="translate(0 2.328) rotate(-29.775)" fill="#140f0c"/></g><g transform="translate(20.849 10.645)"><rect width="4.688" height="0.687" transform="translate(0 2.328) rotate(-29.77)" fill="#140f0c"/></g><g transform="translate(22.466 14.064)"><rect width="3.824" height="0.688" transform="matrix(0.865, -0.502, 0.502, 0.865, 0, 1.919)" fill="#140f0c"/></g><g transform="translate(22.761 16.836)"><rect width="4.687" height="0.687" transform="matrix(0.868, -0.496, 0.496, 0.868, 0, 2.327)" fill="#140f0c"/></g><g transform="translate(24.795 20.755)"><rect width="3.291" height="0.687" transform="translate(0 1.634) rotate(-29.77)" fill="#140f0c"/></g><g transform="translate(23.674 22.517)"><rect width="4.687" height="0.687" transform="translate(0 2.328) rotate(-29.775)" fill="#140f0c"/></g><g transform="translate(24.92 27.239)"><rect width="2.288" height="0.687" transform="translate(0 1.128) rotate(-29.522)" fill="#140f0c"/></g><g transform="translate(22.695 28.269)"><path d="M503.349,1448.821l-.359-.587,1.847-1.132.359.587Z" transform="translate(-502.99 -1447.102)" fill="#140f0c"/></g></g></g></svg>